<ttFont>
<head>
    <!-- Most of this table will be recalculated by the compiler -->
    <tableVersion value="1.0"/>
    <fontRevision value="2.004"/>
    <checkSumAdjustment value="0x975b8e9f"/>
    <magicNumber value="0x5f0f3cf5"/>
    <flags value="00000000 00000011"/>
    <unitsPerEm value="1000"/>
    <created value="Thu Oct  8 10:02:17 2009"/>
    <modified value="Thu Oct  8 10:02:17 2009"/>
    <xMin value="-305"/>
    <yMin value="-321"/>
    <xMax value="515"/>
    <yMax value="991"/>
    <macStyle value="00000000 00000000"/>
    <lowestRecPPEM value="3"/>
    <fontDirectionHint value="2"/>
    <indexToLocFormat value="0"/>
    <glyphDataFormat value="0"/>
  </head>
          <CharString index="0">
            hlineto
            -106 callgsubr
            return
          </CharString>
          <CharString index="1">
            336 75 callgsubr
            -20 vhcurveto
            -87 549 rlineto
            33 -5 -13 3 -16 hhcurveto
            -22 -9 -3 -33 -5 hvcurveto
            -87 -549 rlineto
            -21 -27 callsubr
            68 hlineto
            8 20 -46 callsubr
            -22 hvcurveto
            21 135 rlineto
            114 hlineto
            21 -135 rlineto
            -22 6 callsubr
            67 -3 callgsubr
            hvcurveto
            -110 196 rmoveto
            -102 hlineto
            51 349 rlineto
            return
          </CharString>
          <CharString index="2">
            rmoveto
            5 -1 10 -8 4 vhcurveto
            -74 40 -11 6 -6 0 -11 -6 rlinecurve
            -74 -40 rlineto
            -8 -4 -1 -10 -5 vvcurveto
            -8 4 -9 11 5 4 -1 4 9 vhcurveto
            64 29 64 -29 rlineto
            -4 8 5 1 5 hhcurveto
            11 4 9 8 hvcurveto
            return
          </CharString>
          <CharString index="3">
            0 -20 -93 callsubr
            hvcurveto
            return
          </CharString>
          <CharString index="4">
            350 -40 callsubr
            -84 -69 callsubr
            -365 hlineto
            -118 -44 -60 -38 -39 -44 61 117 vhcurveto
            365 20 -38 callsubr
            -37 callsubr
            20 -371 hlineto
            -121 60 -91 67 67 60 91 121 vhcurveto
            371 20 27 callsubr
            return
          </CharString>
          <CharString index="5">
            7 -6 9 -8 10 vhcurveto
            -45 59 rlineto
            14 -10 -9 -1 -9 hhcurveto
            -6 -9 -6 -16 -6 7 -9 7 -10 hvcurveto
            52 -67 4 -6 10 -2 4 1 rlinecurve
            9 1 9 7 15 vvcurveto
            return
          </CharString>
          <CharString index="6">
            314 103 rmoveto
            5 -5 14 -18 -13 -4 -7 -16 -4 vhcurveto
            -60 -18 -46 -5 -13 hhcurveto
            -59 -46 66 98 -9 hvcurveto
            207 hlineto
            13 15 0 29 116 -49 92 -85 -78 -68 -98 -122 -126 73 -95 84 87 36 83 26 hvcurveto
            -45 132 rmoveto
            -190 hlineto
            107 11 46 52 44 hhcurveto
            72 14 -89 -70 3 hvcurveto
            return
          </CharString>
          <CharString index="7">
            rmoveto
            7 -11 9 -7 5 vhcurveto
            -78 58 rlineto
            7 -10 -10 6 -9 hhcurveto
            -11 -9 -10 -14 -9 10 -8 8 -6 hvcurveto
            90 -66 rlineto
            -3 4 7 -3 4 hhcurveto
            14 8 12 15 hvcurveto
            endchar
          </CharString>
          <CharString index="8">
            297 -66 callgsubr
            -73 531 73 hlineto
            23 callsubr
            -189 -107 callsubr
            72 -531 -72 -107 callsubr
            189 hlineto
            112 callsubr
            return
          </CharString>
          <CharString index="9">
            rmoveto
            37 -20 26 -20 145 callgsubr
            vhcurveto
            0 6 1 6 4 vhcurveto
            -5 -46 -11 -29 -37 -19 -1 -4 rcurveline
            -8 10 -6 6 13 53 33 79 vhcurveto
            endchar
          </CharString>
          <CharString index="10">
            334 99 callgsubr
            -18 0 -9 vhcurveto
            -70 hlineto
            24 callsubr
            9 hvcurveto
            16 -512 hlineto
            -123 517 rlineto
            35 -9 -18 0 -15 hhcurveto
            -45 hlineto
            -9 6 callsubr
            16 -531 1 callgsubr
            160 callsubr
            -8 hvcurveto
            -15 512 hlineto
            122 -517 rlineto
            -35 8 18 0 16 hhcurveto
            18 11 0 33 hvcurveto
            538 16 vlineto
            112 callsubr
            return
          </CharString>
          <CharString index="11">
            rmoveto
            5 -7 9 -5 5 vhcurveto
            -74 68 -9 8 -12 0 -9 -8 rlinecurve
            -74 -68 rlineto
            -5 -5 -7 -9 -5 vvcurveto
            -14 6 -6 11 5 7 1 7 8 vhcurveto
            64 57 64 -57 rlineto
            -7 8 7 -1 5 hhcurveto
            11 6 6 14 hvcurveto
            return
          </CharString>
          <CharString index="12">
            -12 12 -8 8 5 4 2 4 3 vhcurveto
            8 6 31 44 17 hhcurveto
            6 4 -6 -8 5 hvcurveto
            -32 19 13 -12 19 hhcurveto
            return
          </CharString>
          <CharString index="13">
            rmoveto
            22 -16 15 -15 147 callgsubr
            vhcurveto
            return
          </CharString>
          <CharString index="14">
            -20 20 0 8 return
          </CharString>
          <CharString index="15">
            rmoveto
            14 -6 6 -11 -5 -7 -1 -7 -8 vhcurveto
            -64 -57 -64 57 rlineto
            7 -8 -7 1 -5 hhcurveto
            -11 -6 -6 -14 -5 7 -9 5 -5 hvcurveto
            74 -68 9 -8 12 0 9 8 rlinecurve
            74 68 rlineto
            5 5 7 9 5 vvcurveto
            endchar
          </CharString>
          <CharString index="16">
            -90 -47 -27 -33 -56 0 44 35 vhcurveto
            280 vlineto
            27 -8 5 -71 callsubr
            -277 hlineto
            -90 45 -24 51 43 26 26 18 15 vhcurveto
            return
          </CharString>
          <CharString index="17">
            350 652 rmoveto
            23 -9 29 -22 vhcurveto
            -1 hlineto
            -16 -1 -14 -16 -20 vvcurveto
            -13 7 -11 8 -6 vhcurveto
            0 1 -26 -20 vhcurveto
            -57 hlineto
            -9 -8 -10 -11 hvcurveto
            -9 1 9 -10 7 hhcurveto
            30 -370 hlineto
            -48 -8 -45 -18 -35 vhcurveto
            -28 -15 -21 -17 -21 hhcurveto
            -21 -20 17 28 -15 hvcurveto
            -19 35 -8 45 48 vvcurveto
            370 30 vlineto
            8 9 10 9 1 hvcurveto
            11 -8 10 -10 vhcurveto
            -103 117 callsubr
            -9 1 9 -10 8 hhcurveto
            29 -370 hlineto
            -55 13 -51 23 -40 vhcurveto
            -41 23 33 -26 35 hhcurveto
            36 33 26 41 23 hvcurveto
            22 40 13 51 55 vvcurveto
            370 vlineto
            26 11 23 29 41 vvcurveto
            return
          </CharString>
          <CharString index="18">
            rmoveto
            20 -15 12 -13 -13 -15 -12 -20 -19 15 -13 13 13 15 13 19 vhcurveto
            123 hmoveto
            20 -15 12 -13 -13 -15 -12 -20 -19 15 -13 13 13 15 13 19 vhcurveto
            return
          </CharString>
          <CharString index="19">
            -85 callsubr
            178 -107 callgsubr
          </CharString>
          <CharString index="20">
            68 40 callgsubr
            -254 -69 callsubr
            -531 -44 callsubr
            return
          </CharString>
          <CharString index="21">
            rmoveto
            -90 callgsubr
            return
          </CharString>
          <CharString index="22">
            -105 callsubr
            -24 return
          </CharString>
          <CharString index="23">
            -8 -81 callsubr
            return
          </CharString>
          <CharString index="24">
            336 510 rmoveto
            31 callgsubr
            -268 hlineto
            -19 -9 -4 -29 hvcurveto
            -68 vlineto
            -15 4 -17 18 26 callsubr
            61 95 -531 -34 vlineto
            -9 -19 -49 callgsubr
            113 hlineto
            23 callsubr
            -35 531 95 -61 hlineto
            24 callgsubr
            return
          </CharString>
          <CharString index="25">
            hlineto
            -84 callsubr
            return
          </CharString>
          <CharString index="26">
            -19 0 -20 -20 19 -21 callsubr
            return
          </CharString>
          <CharString index="27">
            344 405 -47 callgsubr
            36 hlineto
            -38 -335 -22 119 rlineto
            66 -12 -3 13 -22 hhcurveto
            -23 -3 -13 -65 -12 hvcurveto
            -22 -120 -39 335 rlineto
            35 hlineto
            5 callsubr
            -78 hlineto
            24 callsubr
            14 hvcurveto
            43 -352 rlineto
            -35 4 11 -3 16 hhcurveto
            27 2 8 71 14 hvcurveto
            20 122 19 -123 rlineto
            -69 14 2 -9 26 hhcurveto
            12 14 0 37 5 hvcurveto
            42 353 rlineto
            15 -41 callsubr
            hvcurveto
            return
          </CharString>
          <CharString index="28">
            303 117 rmoveto
            17 -4 17 -19 -18 -4 -17 -18 vhcurveto
            -68 -1 -39 -14 -17 hhcurveto
            -55 0 59 27 hvcurveto
            265 114 121 callgsubr
            -114 95 hlineto
            15 -4 17 -18 -19 -4 -17 -15 vhcurveto
            -95 -60 vlineto
            -8 -21 -104 callsubr
            61 -270 hlineto
            -91 47 -30 48 36 71 23 100 vhcurveto
            return
          </CharString>
          <CharString index="29">
            -34 14 35 -2 27 hhcurveto
            14 -41 callsubr
            hvcurveto
            -115 106 rmoveto
            -26 0 -28 -29 -20 vhcurveto
            return
          </CharString>
          <CharString index="30">
            hlineto
            -95 callgsubr
            return
          </CharString>
          <CharString index="31" raw="1">
            0693620a 0b  
          </CharString>
          <CharString index="32">
            19 callgsubr
            538 hlineto
            -22 callgsubr
            -531 -86 -107 callsubr
            217 hlineto
            112 callsubr
            return
          </CharString>
          <CharString index="33">
            -54 callgsubr
            6 8 -5 hvcurveto
            32 -19 -14 12 -18 hhcurveto
            return
          </CharString>
          <CharString index="34">
            338 49 callgsubr
            -16 531 16 callsubr
            -76 -107 callsubr
            16 -232 -150 232 16 -77 callsubr
            -77 -82 callsubr
            return
          </CharString>
          <CharString index="35">
            -9 1 9 -9 8 hhcurveto
            39 -245 hlineto
            -58 -1 -32 -48 -43 hhcurveto
            -23 -14 4 12 -10 hvcurveto
            -10 10 -2 19 25 vvcurveto
            303 vlineto
            12 -11 5 -8 vhcurveto
            -65 hlineto
            -9 -9 -10 -11 hvcurveto
            -9 1 10 -9 7 hhcurveto
            39 -281 hlineto
            -32 9 -30 17 -19 vhcurveto
            -24 19 24 -5 29 hhcurveto
            31 29 16 28 21 hvcurveto
            1 -21 rlineto
            return
          </CharString>
          <CharString index="36">
            -20 vhcurveto
            -46 -107 callsubr
            29 return
          </CharString>
          <CharString index="37">
            334 20 rmoveto
            20 -18 0 -16 vhcurveto
            -120 321 112 210 rlineto
            18 18 -16 callgsubr
            -59 hlineto
            43 callsubr
            -20 19 0 19 hvcurveto
            -158 -297 rlineto
            297 14 -38 callsubr
            -67 77 callgsubr
            -531 -12 -107 callsubr
            67 -77 callsubr
            -14 159 hlineto
            64 121 105 -280 rlineto
            -15 -81 callsubr
            51 hlineto
            112 callsubr
            return
          </CharString>
          <CharString index="38">
            -107 callsubr
            19 return
          </CharString>
          <CharString index="39">
            247 -55 rmoveto
            448 vlineto
            27 -8 5 66 callsubr
            18 0 10 hvcurveto
            86 -435 hlineto
            -18 0 -52 -20 -39 vhcurveto
            -36 -19 -20 0 -17 hhcurveto
            -14 -17 1 4 -12 hvcurveto
            22 -4 31 -23 -10 -18 -9 -25 -64 70 0 26 26 28 0 52 35 vhcurveto
            7 10 27 44 74 vvcurveto
            return
          </CharString>
          <CharString index="40">
            46 40 23 51 52 vvcurveto
            83 -54 80 -79 vhcurveto
            -120 -55 callgsubr
            return
          </CharString>
          <CharString index="41">
            -25 -18 -35 0 0 vvcurveto
            -45 -27 40 45 63 73 43 88 hvcurveto
            return
          </CharString>
          <CharString index="42">
            -39 callsubr
            -15 15 82 callsubr
            vhcurveto
            endchar
          </CharString>
          <CharString index="43">
            321 33 rmoveto
            52 vlineto
            15 -4 18 -18 -19 -4 -17 -16 vhcurveto
            -45 -205 vlineto
            243 345 rlineto
            3 5 2 5 6 vvcurveto
            24 -17 0 -11 vhcurveto
            -234 hlineto
            -20 -8 -4 -28 hvcurveto
            -42 vlineto
            24 callgsubr
            34 192 vlineto
            -243 -345 rlineto
            -3 -5 -2 -4 -7 vvcurveto
            -24 17 0 12 vhcurveto
            247 80 callsubr
            return
          </CharString>
          <CharString index="44">
            rmoveto
            -17 -8 -23 -20 -20 -8 23 17 17 8 23 20 20 8 -23 -17 vhcurveto
            27 hmoveto
            30 -26 32 -29 -29 -26 -32 -30 -30 26 -32 29 29 26 32 30 vhcurveto
            return
          </CharString>
          <CharString index="45">
            -29 -107 callsubr
            103 -77 callsubr
            -29 197 hlineto
            -65 callgsubr
            return
          </CharString>
          <CharString index="46">
            -12 12 -8 8 5 4 2 4 3 vhcurveto
            8 6 31 44 17 hhcurveto
            6 4 -5 -9 5 hvcurveto
            -32 19 13 -12 19 hhcurveto
            return
          </CharString>
          <CharString index="47">
            239 528 rlineto
            4 9 2 3 7 vvcurveto
            24 -17 0 -12 vhcurveto
            -229 hlineto
            -20 -8 -4 -29 hvcurveto
            -68 vlineto
            24 callgsubr
            61 192 vlineto
            -238 -528 rlineto
            -5 -9 -1 -3 -7 vvcurveto
            -24 17 0 11 vhcurveto
            242 hlineto
            return
          </CharString>
          <CharString index="48">
            -4 8 5 1 5 hhcurveto
            11 4 9 8 hvcurveto
            37 210 rmoveto
            47 -33 26 -39 -30 -32 -25 -47 -12 8 -7 10 10 8 10 8 vhcurveto
            16 vlineto
            14 12 10 14 25 13 -13 -27 -16 callsubr
            return
          </CharString>
          <CharString index="49">
            21 19 12 30 32 vvcurveto
            -57 -332 rmoveto
            -83 0 -116 -16 -47 vhcurveto
            -40 -13 -36 -4 -32 hhcurveto
            -32 -35 4 40 -14 hvcurveto
            -15 47 0 116 83 vvcurveto
            77 0 105 15 42 vhcurveto
            39 15 35 2 31 hhcurveto
            32 34 -2 -39 15 hvcurveto
            return
          </CharString>
          <CharString index="50">
            -27 11 19 -15 21 hhcurveto
            44 16 64 34 hvcurveto
            -105 362 rmoveto
            -53 -28 -69 -68 vhcurveto
            -52 245 52 hlineto
            68 28 -69 -54 hvcurveto
            return
          </CharString>
          <CharString index="51">
            -27 callgsubr
            246 56 hlineto
            12 22 0 -29 23 hvcurveto
            16 -22 0 -29 -49 vvcurveto
            -67 1 -28 12 -32 vhcurveto
            return
          </CharString>
          <CharString index="52">
            vhcurveto
            -47 -82 callsubr
            return
          </CharString>
          <CharString index="53">
            rmoveto
            -35 callgsubr
            return
          </CharString>
          <CharString index="54">
            309 118 rmoveto
            101 -88 19 -32 7 vhcurveto
            -65 16 -40 17 46 vvcurveto
            29 19 41 70 67 3 -48 -28 1 vhcurveto
            -19 1 13 -2 8 hhcurveto
            19 4 13 17 hvcurveto
            78 vlineto
            return
          </CharString>
          <CharString index="55">
            -54 callsubr
            vhcurveto
            return
          </CharString>
          <CharString index="56">
            -86 callgsubr
            endchar
          </CharString>
          <CharString index="57">
            328 300 rmoveto
            161 -60 150 -91 vhcurveto
            -139 -107 callsubr
            14 -531 -14 -107 callsubr
            140 hlineto
            88 62 141 159 hvcurveto
            -45 1 rmoveto
            -129 -39 -132 -79 vhcurveto
            -68 531 67 hlineto
            84 35 -149 -121 hvcurveto
            return
          </CharString>
          <CharString index="58">
            282 47 hstem
            316 305 rmoveto
            -36 callsubr
            endchar
          </CharString>
          <CharString index="59">
            -107 callsubr
            24 -531 -24 -107 callsubr
            return
          </CharString>
          <CharString index="60">
            -86 callsubr
            hintmask 0000010000000000
            -41 callgsubr
            hintmask 0000100000000000
            -6 -8 -4 -6 -4 vvcurveto
            hintmask 0001001000000000
            -95 callsubr
            hintmask 0000100000000000
            24 23 27 36 31 hvcurveto
            hintmask 0000010000000000
            -29 callsubr
          </CharString>
          <CharString index="61">
            0 20 20 -19 0 return
          </CharString>
          <CharString index="62">
            -16 -82 callsubr
            77 hlineto
            return
          </CharString>
          <CharString index="63">
            -19 -107 callsubr
            return
          </CharString>
          <CharString index="64">
            hstemhm
            -102 callgsubr
            hintmask 00010000
            return
          </CharString>
          <CharString index="65">
            -12 40 -28 -1 callgsubr
            -28 40 hstemhm
            15 39 78 39 4 39 82 38 -32 38 hintmask 0111000101000000
            340 85 callgsubr
            -88 257 83 -38 callsubr
            -83 234 hlineto
            hintmask 0001001010000000
            82 -61 hlineto
            -11 3 -21 16 16 3 21 11 vhcurveto
            31 callgsubr
            -108 hlineto
            -7 -8 0 4 -13 hvcurveto
            hintmask 1000110000000000
            8 -24 -7 0 -13 hhcurveto
            -77 -18 -34 -66 -9 hvcurveto
            -7 -58 -1 -68 -91 vvcurveto
            -79 0 -82 9 -63 vhcurveto
            -63 9 19 -31 75 hhcurveto
            15 4 0 8 26 hvcurveto
            hintmask 0100000001000000
            4 12 8 0 7 hhcurveto
            113 80 callsubr
            -165 134 rmoveto
            hintmask 1000111100000000
            -113 -8 -26 -35 -78 0 67 219 210 0 59 77 36 8 -22 -117 vhcurveto
            endchar
          </CharString>
          <CharString index="66">
            19 0 20 return
          </CharString>
          <CharString index="67">
            591 -52 callsubr
            return
          </CharString>
          <CharString index="68">
            rmoveto
            22 -16 15 -15 -15 -16 -15 -22 -22 16 return
          </CharString>
          <CharString index="69">
            vlineto
            -95 callgsubr
            return
          </CharString>
          <CharString index="70">
            -84 -107 callsubr
            return
          </CharString>
          <CharString index="71">
            58 callgsubr
            -220 113 callgsubr
            -23 -24 22 0 9 hvcurveto
            220 hlineto
            8 23 0 23 hvcurveto
            return
          </CharString>
          <CharString index="72">
            0 40 152 40 65 95 callsubr
            hstemhm
            42 38 34 38 25 38 79 38 -32 38 hintmask 1011001010000000
            338 85 callgsubr
            -85 257 78 vlineto
            -29 callgsubr
            -78 234 hlineto
            hintmask 1101111100000000
            79 -61 hlineto
            -11 3 -21 16 16 3 21 11 vhcurveto
            31 callgsubr
            -191 -5 callgsubr
            10 hvcurveto
            -73 -531 rlineto
            -12 -20 0 -20 -20 20 0 9 hvcurveto
            46 hlineto
            160 callsubr
            -13 hvcurveto
            20 152 rlineto
            77 -152 hlineto
            -7 -20 -49 callgsubr
            132 hlineto
            hintmask 0101011010000000
            20 -6 callgsubr
            -161 199 rmoveto
            -71 hlineto
            46 339 rlineto
            25 hlineto
            endchar
          </CharString>
          <CharString index="73">
            -33 callsubr
            253 hlineto
            return
          </CharString>
          <CharString index="74">
            344 -66 callgsubr
            -30 return
          </CharString>
          <CharString index="75">
            40 callsubr
            45 33 callsubr
            70 callsubr
            -13 69 170 callsubr
            hintmask 0010000000001100
            -22 callsubr
            hintmask 0000000000100000
            -19 0 50 64 hvcurveto
            hintmask 0000000001000000
            3 callsubr
            hintmask 0001011000010000
            -67 callsubr
            hintmask 0001100100100000
            -56 callsubr
            return
          </CharString>
          <CharString index="76">
            43 -23 14 callsubr
            return
          </CharString>
          <CharString index="77">
            -44 -35 -16 -51 -37 vvcurveto
            -83 73 -58 87 86 73 57 84 138 -124 0 -23 vhcurveto
            -59 hlineto
            return
          </CharString>
          <CharString index="78">
            6 7 3 7 4 vvcurveto
            endchar
          </CharString>
          <CharString index="79">
            0 81 callsubr
            hstemhm
            23 45 -12 45 136 45 0 45 hintmask 11100100
            332 33 rmoveto
            21 vlineto
            12 -3 21 -16 -16 -3 -21 -26 vhcurveto
            -46 hlineto
            6 65 13 48 21 65 rrcurveto
            24 77 15 56 58 vvcurveto
            125 -73 89 -79 -79 -73 -90 -124 -63 22 -73 19 -63 vhcurveto
            hintmask 10010000
            16 -50 16 -52 5 -68 rrcurveto
            -45 hlineto
            26 -3 21 -16 -16 -4 -21 -12 vhcurveto
            -21 vlineto
            -29 9 -4 20 vhcurveto
            68 hlineto
            11 16 0 26 62 -21 72 -21 70 hvcurveto
            hintmask 01100100
            -15 54 -16 64 61 vvcurveto
            99 47 75 60 59 48 -75 -99 -61 -16 -63 -15 -55 vhcurveto
            -21 -69 -22 -71 -64 vvcurveto
            hintmask 10001000
            -26 17 0 12 vhcurveto
            68 hlineto
            19 -6 callgsubr
            endchar
          </CharString>
          <CharString index="80">
            -18 -104 callsubr
            return
          </CharString>
          <CharString index="81">
            -1 callsubr
            hintmask 0001001001000000
            5 4 -1 4 9 hvcurveto
            64 29 64 -29 rlineto
            hintmask 0000111010100000
            -59 callsubr
            hintmask 0000000100000000
            -44 callgsubr
            hintmask 0000000010000000
            64 callgsubr
            vhcurveto
            hintmask 0000000100100000
            -17 callgsubr
          </CharString>
          <CharString index="82">
            114 -21 425 -20 hstem
            154 41 vstem
            308 210 rmoveto
            8 -7 6 -4 4 vhcurveto
            -18 16 -38 30 -42 31 101 80 rcurveline
            4 4 4 5 7 vvcurveto
            16 -14 6 -8 -3 -7 -5 -3 -4 vhcurveto
            -79 -72 2 157 rlineto
            11 -11 7 -9 -9 -12 -5 -16 vhcurveto
            3 -154 -79 72 rlineto
            3 -4 -7 5 -4 hhcurveto
            -8 -13 -6 -16 -7 4 -6 4 -4 hvcurveto
            100 -78 -100 -80 rlineto
            -5 -4 -3 -5 -7 vvcurveto
            -16 13 -6 8 4 7 5 3 4 vhcurveto
            78 72 -2 -154 rlineto
            -15 13 -6 8 9 11 7 14 vhcurveto
            -2 154 86 -78 rlineto
            3 -2 4 0 0 vvcurveto
            8 14 6 16 hvcurveto
            endchar
          </CharString>
          <CharString index="83">
            357 76 callgsubr
            142 35 callsubr
            128 211 -81 callgsubr
            endchar
          </CharString>
          <CharString index="84">
            128 57 78 62 vhcurveto
            11 hlineto
            -39 2 20 -3 5 hhcurveto
            13 13 12 19 hvcurveto
            return
          </CharString>
          <CharString index="85">
            353 86 rmoveto
            17 -9 7 -13 -17 -5 -16 -8 -8 -1 -50 -15 vhcurveto
            return
          </CharString>
          <CharString index="86">
            0 8 hvcurveto
            return
          </CharString>
          <CharString index="87">
            336 75 callgsubr
            -20 vhcurveto
            -87 549 rlineto
            36 -5 -14 0 -16 hhcurveto
            -22 -8 -3 -33 -5 hvcurveto
            -87 -549 rlineto
            -21 -27 callsubr
            68 hlineto
            8 20 -46 callsubr
            -22 hvcurveto
            21 135 rlineto
            114 hlineto
            21 -135 rlineto
            -22 -19 0 -20 -20 15 0 29 hvcurveto
            -43 -44 -18 -32 -45 157 callgsubr
            2 4 0 15 callgsubr
            -15 -17 21 29 47 22 42 40 34 hvcurveto
            10 -3 callgsubr
            hvcurveto
            -110 196 rmoveto
            -102 hlineto
            51 343 rlineto
            return
          </CharString>
          <CharString index="88">
            -33 callsubr
            538 hlineto
            27 -7 6 44 callgsubr
            -192 hlineto
            17 -12 -29 35 -43 hhcurveto
            -72 -66 -93 -126 hvcurveto
            return
          </CharString>
          <CharString index="89">
            -33 callgsubr
            hstem
            335 20 rmoveto
            163 callgsubr
            -14 hlineto
            -103 285 84 246 rlineto
            13 hlineto
            8 -14 callsubr
            17 hvcurveto
            -59 -179 -64 179 rlineto
            17 144 callgsubr
            -67 -82 callsubr
            14 hlineto
            89 -245 -97 -286 rlineto
            -14 -82 callsubr
            67 hlineto
            8 20 -46 callsubr
            -19 hvcurveto
            73 226 79 -226 rlineto
            -17 -105 callgsubr
            66 hlineto
            123 callsubr
            endchar
          </CharString>
          <CharString index="90">
            314 103 rmoveto
            5 -5 14 -18 -13 -4 -7 -16 -4 vhcurveto
            -60 -18 -46 -5 -13 hhcurveto
            -59 -46 66 98 -9 hvcurveto
            207 hlineto
            13 15 0 29 116 -49 92 -85 -78 -68 -98 -122 -117 64 -90 93 -16 hvcurveto
            -43 -40 -15 -29 -44 157 callgsubr
            3 4 -1 15 callgsubr
            -15 -16 21 29 25 9 33 28 31 hvcurveto
            25 27 44 24 15 36 rrcurveto
            8 19 11 20 11 vvcurveto
            -45 132 rmoveto
            -190 hlineto
            107 11 46 52 44 hhcurveto
            72 14 -89 -70 3 hvcurveto
            return
          </CharString>
          <CharString index="91">
            -7 0 -9 -6 -5 vhcurveto
            return
          </CharString>
          <CharString index="92">
            316 rmoveto
            10 -10 0 -4 vhcurveto
            -31 276 hlineto
            6 -2 10 -8 -6 -2 -5 -6 -2 vhcurveto
            -7 -23 -11 -27 -19 -2 rrcurveto
            -4 -8 -1 -9 -7 4 -3 7 12 22 22 1 2 hvcurveto
            -232 -32 vlineto
            -4 -10 0 -10 -10 10 0 4 hvcurveto
            85 hlineto
            4 10 0 10 hvcurveto
            return
          </CharString>
          <CharString index="93">
            154 callsubr
            -8 hvcurveto
            -66 143 callgsubr
            return
          </CharString>
          <CharString index="94">
            90 callsubr
            hstemhm
            59 44 164 44 -30 45 hintmask 10111000
            326 163 rmoveto
            69 -22 60 -77 29 vhcurveto
            55 38 29 32 70 vvcurveto
            72 -44 78 -74 vhcurveto
            -152 -107 callsubr
            18 -531 -18 -107 callsubr
            166 hlineto
            hintmask 01110100
            75 44 84 79 hvcurveto
            -59 297 rmoveto
            -52 -25 -69 -62 vhcurveto
            -77 232 88 hlineto
            hintmask 11011000
            62 14 -72 -39 hvcurveto
            14 -295 rmoveto
            -54 -23 -71 -66 vhcurveto
            -89 258 85 hlineto
            hintmask 00000100
            75 18 -96 -37 hvcurveto
            endchar
          </CharString>
          <CharString index="95">
            -22 callsubr
            hintmask 0000000001000000
            -19 0 50 64 hvcurveto
            hintmask 0000000010000000
            3 callsubr
            return
          </CharString>
          <CharString index="96">
            -208 7 callgsubr
            return
          </CharString>
          <CharString index="97">
            -12 40 280 46 229 40 hstemhm
            25 45 -35 45 190 45 -35 45 hintmask 00101100
            325 169 rmoveto
            54 -19 66 -90 42 vhcurveto
            75 33 24 49 55 vvcurveto
            82 -61 73 -79 -79 -61 -73 -82 -57 26 -48 73 -32 vhcurveto
            hintmask 11010010
            -90 -42 -19 -65 -55 vvcurveto
            -98 67 -83 83 83 67 82 99 vhcurveto
            -55 298 rmoveto
            -59 -37 -54 -58 vhcurveto
            hintmask 10101100
            -59 -36 54 59 60 38 56 57 57 38 -56 -60 hvcurveto
            10 -297 rmoveto
            -76 -43 -66 -62 vhcurveto
            hintmask 01010010
            -63 -42 69 72 77 44 62 61 62 43 -66 -72 hvcurveto
            endchar
          </CharString>
          <CharString index="98">
            10 8 10 8 hvcurveto
            -4 callsubr
            return
          </CharString>
          <CharString index="99">
            96 -34 42 -55 -48 -31 -39 -20 -12 vhcurveto
            return
          </CharString>
          <CharString index="100">
            -21 119 -20 return
          </CharString>
          <CharString index="101">
            20 127 callgsubr
          </CharString>
          <CharString index="102">
            15 16 14 22 return
          </CharString>
          <CharString index="103">
            16 vlineto
            14 12 10 14 25 13 -13 -27 44 callsubr
            64 callgsubr
            59 callsubr
            vhcurveto
            19 vlineto
            return
          </CharString>
          <CharString index="104">
            40 345 40 return
          </CharString>
          <CharString index="105">
            154 callsubr
            -9 hvcurveto
            return
          </CharString>
          <CharString index="106">
            rmoveto
            5 -1 10 -8 4 vhcurveto
            -74 40 -11 6 -6 0 -11 -6 rlinecurve
            -74 -40 rlineto
            -8 -4 -1 -10 -5 vvcurveto
            hintmask 0000100000000000
            -8 4 -9 11 vhcurveto
            return
          </CharString>
          <CharString index="107">
            0 40 216 40 275 40 hstem
            62 45 173 45 vstem
            325 433 rmoveto
            92 -53 86 -78 vhcurveto
            -151 -69 callsubr
            -531 -44 callsubr
            83 hlineto
            5 callsubr
            -19 216 87 hlineto
            79 52 88 89 hvcurveto
            -45 1 rmoveto
            -62 -29 -76 -69 vhcurveto
            -75 275 75 hlineto
            71 27 -80 -57 hvcurveto
            endchar
          </CharString>
          <CharString index="108">
            -118 -306 rlineto
            -13 17 -26 48 73 vvcurveto
            98 48 83 64 19 19 -10 -3 7 vhcurveto
            66 -168 rmoveto
            -99 -48 -80 -63 -11 -14 3 11 -19 vhcurveto
            118 306 rlineto
            4 -6 33 -51 -84 vvcurveto
            return
          </CharString>
          <CharString index="109">
            rmoveto
            74 -77 0 -43 -43 -77 0 -74 -18 13 -4 7 17 2 21 6 1 vhcurveto
            21 2 24 6 54 hhcurveto
            77 1 -12 -18 2 hvcurveto
            -15 2 8 -9 11 hhcurveto
            6 13 3 19 hvcurveto
            endchar
          </CharString>
          <CharString index="110">
            63 0 6 -7 23 vhcurveto
            -9 30 -17 21 -18 20 rrcurveto
            return
          </CharString>
          <CharString index="111">
            -45 callsubr
            -27 callgsubr
            258 150 -258 -16 hlineto
            61 callgsubr
            return
          </CharString>
          <CharString index="112">
            9 -2 callsubr
            return
          </CharString>
          <CharString index="113">
            -19 -104 callsubr
            return
          </CharString>
          <CharString index="114" raw="1">
            cf1d1304 00910b  
          </CharString>
          <CharString index="115">
            30 -21 19 -17 37 callgsubr
            return
          </CharString>
          <CharString index="116">
            -15 4 -13 18 -2 vhcurveto
            29 -2 17 -23 -27 vvcurveto
            -45 -71 -7 -22 vhcurveto
            return
          </CharString>
          <CharString index="117">
            -236 38 188 38 -23 38 80 38 232 38 return
          </CharString>
          <CharString index="118">
            -200 76 callgsubr
            141 24 rmoveto
            19 1 -9 20 -19 hhcurveto
            0 -29 0 1 -36 vhcurveto
            8 -213 rlineto
            -11 2 -24 18 18 2 24 13 vhcurveto
            130 210 rmoveto
            37 1 -25 0 -4 hhcurveto
            -18 -12 -20 -4 1 hvcurveto
            8 -223 rlineto
            -12 1 1 -25 19 hhcurveto
            17 2 24 11 1 hvcurveto
            endchar
          </CharString>
          <CharString index="119">
            rmoveto
            21 56 callgsubr
            -89 hlineto
            43 callsubr
            -21 -28 callgsubr
            88 hlineto
            -23 callgsubr
          </CharString>
          <CharString index="120">
            -28 17 26 -30 40 hhcurveto
            72 67 92 127 hvcurveto
            -45 hmoveto
            -103 -46 -76 -52 -56 -23 95 54 vhcurveto
            82 vlineto
            return
          </CharString>
          <CharString index="121">
            43 -25 43 -23 43 hstemhm
            return
          </CharString>
          <CharString index="122">
            61 callgsubr
            123 callsubr
            return
          </CharString>
          <CharString index="123">
            16 hlineto
            8 20 -16 callgsubr
            return
          </CharString>
          <CharString index="124">
            20 -16 0 -20 vhcurveto
            200 vlineto
            92 21 59 33 22 4 -41 -53 vhcurveto
            -257 vlineto
            -11 -18 0 -20 -20 18 -21 callsubr
            51 hlineto
            9 17 0 20 20 -16 0 -20 hvcurveto
            200 vlineto
            92 20 59 33 22 4 -41 -53 vhcurveto
            -257 vlineto
            -11 -18 0 -20 -20 18 -21 callsubr
            51 hlineto
            return
          </CharString>
          <CharString index="125">
            vvcurveto
            111 callsubr
            148 callsubr
            7 -15 -6 -4 -6 rrcurveto
            return
          </CharString>
          <CharString index="126">
            7 -6 10 -3 4 vhcurveto
            -151 192 rlineto
            8 -7 -2 1 -4 hhcurveto
            -6 -9 -6 -17 -8 7 -9 3 -4 hvcurveto
            140 -178 -140 -178 rlineto
            -3 -4 -7 -9 -8 vvcurveto
            -17 9 -6 6 4 2 1 8 7 vhcurveto
            153 194 rlineto
            3 4 4 7 8 vvcurveto
            endchar
          </CharString>
          <CharString index="127">
            rmoveto
            50 -21 79 -73 39 vhcurveto
            58 44 16 57 51 vvcurveto
            74 -55 60 -73 -75 -57 -42 -74 -28 19 -6 9 11 17 9 23 11 -6 6 -6 8 vhcurveto
            55 19 57 -2 12 hhcurveto
            51 32 -44 -51 -32 -9 -105 -106 hvcurveto
            -12 hlineto
            -10 -7 -9 -11 -20 16 0 10 hvcurveto
            32 hlineto
            return
          </CharString>
          <CharString index="128">
            -34 vlineto
            9 callsubr
            -15 hlineto
            -8 106 callsubr
            return
          </CharString>
          <CharString index="129">
            hstemhm
            62 45 94 44 35 45 -30 45 return
          </CharString>
          <CharString index="130">
            8 144 callgsubr
            return
          </CharString>
          <CharString index="131">
            -9 -20 0 -20 -20 20 0 return
          </CharString>
          <CharString index="132">
            rmoveto
            101 -55 96 -79 -23 -31 -6 -24 -30 vhcurveto
            218 166 121 callgsubr
            -183 hlineto
            -19 -8 -4 -26 hvcurveto
            -276 vlineto
            -12 3 -18 17 11 3 5 10 6 vhcurveto
            36 21 31 17 36 hhcurveto
            58 31 -80 -77 -87 -47 -71 -61 hvcurveto
            return
          </CharString>
          <CharString index="133">
            19 4 16 16 vhcurveto
            return
          </CharString>
          <CharString index="134">
            53 callgsubr
            hvcurveto
            return
          </CharString>
          <CharString index="135">
            -12 -1 17 0 hvcurveto
            7 6 3 10 0 vvcurveto
            return
          </CharString>
          <CharString index="136">
            104 321 rlineto
            13 hlineto
            7 87 callsubr
            return
          </CharString>
          <CharString index="137">
            40 54 -31 callsubr
            return
          </CharString>
          <CharString index="138">
            0 -3 callsubr
            return
          </CharString>
          <CharString index="139">
            40 357 40 140 40 hstem
            62 45 177 45 vstem
            329 213 rmoveto
            123 -61 95 -71 -51 -32 -45 -11 -7 vhcurveto
            return
          </CharString>
          <CharString index="140">
            40 -28 49 callsubr
            return
          </CharString>
          <CharString index="141">
            40 -34 40 354 41 return
          </CharString>
          <CharString index="142">
            580 -81 callgsubr
            return
          </CharString>
          <CharString index="143">
            316 305 rmoveto
            return
          </CharString>
          <CharString index="144">
            27 -8 5 -20 vhcurveto
            return
          </CharString>
          <CharString index="145">
            -69 callgsubr
            5 -11 6 -7 21 -13 rrcurveto
            -38 -36 -28 -45 -45 vvcurveto
            118 callsubr
            26 148 callsubr
            6 -14 -5 -4 -6 rrcurveto
            return
          </CharString>
          <CharString index="146">
            8 15 3 5 6 vvcurveto
            17 -12 15 -15 -16 -13 -14 -20 -49 29 -44 71 91 83 128 195 vhcurveto
            -50 81 rmoveto
            -67 -38 -64 -58 vhcurveto
            hintmask 00110010
            -58 -36 75 86 95 46 66 54 41 49 -70 -121 hvcurveto
            endchar
          </CharString>
          <CharString index="147">
            -211 -21 107 68 return
          </CharString>
          <CharString index="148">
            rmoveto
            15 5 -3 14 -11 hhcurveto
            -9 -5 -7 -10 -5 hvcurveto
            -216 -588 rlineto
            return
          </CharString>
          <CharString index="149">
            80 callgsubr
            -44 44 return
          </CharString>
          <CharString index="150">
            -8 -19 0 -20 return
          </CharString>
          <CharString index="151">
            -16 callsubr
            -44 callgsubr
            return
          </CharString>
          <CharString index="152">
            36 callsubr
            293 -17 25 -124 -124 -17 -25 -292 return
          </CharString>
          <CharString index="153">
            -4 -6 rrcurveto
            43 callgsubr
            return
          </CharString>
          <CharString index="154">
            317 189 rmoveto
            117 -63 85 -70 -36 -40 -19 -50 -31 vhcurveto
            156 8 60 105 70 hhcurveto
            14 16 -3 -26 16 hvcurveto
            -7 -13 -4 -7 -6 vvcurveto
            -17 13 -15 15 15 13 14 20 return
          </CharString>
          <CharString index="155">
            -33 callgsubr
            85 -10 callgsubr
            return
          </CharString>
          <CharString index="156">
            40 246 40 245 40 return
          </CharString>
          <CharString index="157">
            hstemhm
            24 45 -26 56 return
          </CharString>
          <CharString index="158">
            -6 -8 125 callgsubr
            return
          </CharString>
          <CharString index="159">
            27 -7 6 -20 vhcurveto
            return
          </CharString>
          <CharString index="160">
            -6 40 360 41 return
          </CharString>
          <CharString index="161">
            -16 -6 4 -14 12 hhcurveto
            8 5 6 9 4 hvcurveto
            return
          </CharString>
          <CharString index="162">
            -12 81 callsubr
            return
          </CharString>
          <CharString index="163">
            408 282 47 hstem
            515 143 callsubr
            -453 113 callgsubr
            -23 -24 22 0 9 hvcurveto
            453 126 callsubr
          </CharString>
          <CharString index="164">
            77 29 -83 -58 -72 -38 -70 -65 -74 -28 65 23 hvcurveto
            0 6 12 10 vvcurveto
            18 -14 13 -14 -12 -16 -8 -27 -87 69 -59 83 85 63 86 95 vhcurveto
            endchar
          </CharString>
          <CharString index="165">
            33 -1 -16 0 -11 hhcurveto
            -21 hlineto
            95 callgsubr
            18 0 20 hvcurveto
            -345 vlineto
            -20 -27 callsubr
            59 hlineto
            8 17 0 20 hvcurveto
            return
          </CharString>
          <CharString index="166">
            7 10 5 11 return
          </CharString>
          <CharString index="167">
            -123 62 -95 70 46 30 40 24 14 vhcurveto
            return
          </CharString>
          <CharString index="168">
            -61 hlineto
            50 callgsubr
            return
          </CharString>
          <CharString index="169">
            36 8 35 21 34 return
          </CharString>
          <CharString index="170">
            350 20 rmoveto
            20 -18 0 -20 vhcurveto
            263 vlineto
            21 -3 107 -58 -25 -20 -16 -38 -19 vhcurveto
            15 -4 -16 39 -33 hhcurveto
            -32 -18 -29 -10 -6 hvcurveto
            return
          </CharString>
          <CharString index="171">
            rmoveto
            37 -20 26 -32 -30 -18 -32 -32 -37 19 -25 33 30 18 31 32 vhcurveto
            -25 -1 rmoveto
            -16 -9 -18 -15 -16 -10 15 20 16 9 20 15 return
          </CharString>
          <CharString index="172">
            rmoveto
            8 callsubr
            return
          </CharString>
          <CharString index="173">
            -20 vhcurveto
            -103 hlineto
            95 callgsubr
            return
          </CharString>
          <CharString index="174">
            hvcurveto
            -7 53 0 83 57 vvcurveto
            65 0 77 7 53 vhcurveto
            60 8 15 23 67 hhcurveto
            67 14 -24 -60 8 hvcurveto
            7 -53 0 -83 -57 vvcurveto
            return
          </CharString>
          <CharString index="175">
            -20 22 callsubr
            return
          </CharString>
          <CharString index="176">
            40 191 40 324 40 return
          </CharString>
          <CharString index="177">
            hstemhm
            55 45 0 44 return
          </CharString>
          <CharString index="178">
            hstemhm
            45 39 -39 40 164 40 -20 40 -39 39 return
          </CharString>
          <CharString index="179">
            hstemhm
            48 44 165 45 return
          </CharString>
          <CharString index="180">
            112 callgsubr
            45 return
          </CharString>
          <CharString index="181">
            vlineto
            -17 6 callsubr
            53 -3 callgsubr
            return
          </CharString>
          <CharString index="182">
            36 44 189 45 return
          </CharString>
          <CharString index="183">
            -1 -8 -7 vhcurveto
            -151 -192 rlineto
            -3 -4 -6 -10 -7 vvcurveto
            -8 4 -7 3 -4 vhcurveto
            153 -194 rlineto
            -8 7 return
          </CharString>
          <CharString index="184">
            -20 42 callsubr
            return
          </CharString>
          <CharString index="185">
            88 callgsubr
            344 40 -39 39 return
          </CharString>
          <CharString index="186">
            124 callgsubr
            127 -20 return
          </CharString>
          <CharString index="187">
            hlineto
            20 -6 callgsubr
            return
          </CharString>
          <CharString index="188">
            40 543 40 return
          </CharString>
          <CharString index="189">
            15 16 15 22 return
          </CharString>
          <CharString index="190">
            30 vhcurveto
            18 175 rmoveto
            14 -9 10 -11 -9 -10 -6 -7 -10 vhcurveto
            -78 -58 rlineto
            -7 -5 -11 -9 -7 vvcurveto
            return
          </CharString>
          <CharString index="191">
            58 callgsubr
            -54 113 callgsubr
            -23 -24 22 0 9 hvcurveto
            54 126 callsubr
          </CharString>
          <CharString index="192">
            62 37 64 48 53 39 -81 -97 vhcurveto
            endchar
          </CharString>
          <CharString index="193">
            -12 33 callsubr
            return
          </CharString>
          <CharString index="194">
            21 0 20 hvcurveto
            return
          </CharString>
          <CharString index="195">
            vstem
            265 241 rmoveto
            73 -46 51 -43 -49 -42 -53 -71 -68 43 -54 46 50 41 57 65 vhcurveto
            return
          </CharString>
          <CharString index="196">
            vvcurveto
            97 callgsubr
          </CharString>
          <CharString index="197">
            0 92 callsubr
            return
          </CharString>
          <CharString index="198">
            hstemhm
            24 45 -17 45 21 45 return
          </CharString>
          <CharString index="199">
            40 258 41 232 40 return
          </CharString>
          <CharString index="200">
            -20 0 -21 -20 19 0 19 return
          </CharString>
          <CharString index="201">
            27 86 callgsubr
            return
          </CharString>
          <CharString index="202">
            40 234 40 return
          </CharString>
          <CharString index="203">
            rmoveto
            103 -45 109 -84 -69 -56 -111 -102 -101 50 -112 75 78 51 110 104 vhcurveto
            return
          </CharString>
          <CharString index="204">
            -21 121 -20 return
          </CharString>
          <CharString index="205">
            353 hlineto
            27 return
          </CharString>
          <CharString index="206">
            -35 29 32 -39 33 hhcurveto
            48 28 73 78 hvcurveto
            -205 -41 rmoveto
            -49 -7 -28 -15 -29 hhcurveto
            return
          </CharString>
          <CharString index="207">
            -13 11 -7 9 9 11 7 13 vhcurveto
            return
          </CharString>
          <CharString index="208">
            -4 -11 0 -11 -11 11 0 4 hvcurveto
            return
          </CharString>
          <CharString index="209">
            -235 38 582 40 return
          </CharString>
          <CharString index="210">
            341 139 rmoveto
            14 -11 9 -11 -10 -12 -9 -14 -50 -3 -55 -29 -33 -26 32 return
          </CharString>
          <CharString index="211">
            -9 -7 vvcurveto
            -15 return
          </CharString>
          <CharString index="212">
            -37 -14 33 11 hvcurveto
            0 3 6 5 vvcurveto
            9 -7 7 -7 -6 -8 -4 -14 -43 return
          </CharString>
          <CharString index="213">
            93 callsubr
            52 90 0 93 return
          </CharString>
          <CharString index="214">
            -21 120 -31 callsubr
            return
          </CharString>
          <CharString index="215">
            hstemhm
            62 45 37 62 -5 44 35 45 -30 45 return
          </CharString>
          <CharString index="216">
            12 -21 23 40 517 40 return
          </CharString>
          <CharString index="217">
            -20 72 callsubr
            return
          </CharString>
          <CharString index="218">
            118 callsubr
            27 return
          </CharString>
          <CharString index="219">
            8 -41 callsubr
            hvcurveto
            return
          </CharString>
          <CharString index="220">
            32 callgsubr
            42 -31 callsubr
            34 44 193 return
          </CharString>
          <CharString index="221">
            43 callgsubr
            -15 -16 21 29 47 22 42 39 34 hvcurveto
            14 hlineto
            return
          </CharString>
          <CharString index="222">
            97 hstem
            136 78 vstem
            214 return
          </CharString>
          <CharString index="223">
            16 -42 0 -105 -77 vvcurveto
            return
          </CharString>
          <CharString index="224">
            hlineto
            -10 -8 -10 -11 hvcurveto
            return
          </CharString>
          <CharString index="225">
            -42 28 -47 41 return
          </CharString>
          <CharString index="226">
            104 rmoveto
            18 -14 7 -8 -16 -5 -20 -10 -3 vhcurveto
            -187 -716 rlineto
            return
          </CharString>
          <CharString index="227">
            -33 callgsubr
            hstem
            153 44 vstem
            return
          </CharString>
          <CharString index="228">
            11 callgsubr
            76 -21 return
          </CharString>
          <CharString index="229">
            94 callgsubr
            108 36 8 35 return
          </CharString>
          <CharString index="230">
            98 callgsubr
            hvcurveto
            return
          </CharString>
          <CharString index="231">
            -21 187 33 return
          </CharString>
          <CharString index="232">
            53 hlineto
            8 19 0 21 hvcurveto
            -119 20 rmoveto
            -159 hlineto
            157 return
          </CharString>
          <CharString index="233">
            hlineto
            8 23 0 23 hvcurveto
            endchar
          </CharString>
          <CharString index="234">
            -20 19 0 9 vhcurveto
            76 hlineto
            hintmask 0000000001000000
            123 callsubr
            return
          </CharString>
          <CharString index="235">
            124 callsubr
            hstem
            -242 62 callsubr
            vstem
            -108 return
          </CharString>
          <CharString index="236">
            43 -23 43 -25 43 -23 43 16 callgsubr
            return
          </CharString>
          <CharString index="237">
            52 -31 41 -59 -90 -94 -121 -203 -242 79 -69 65 return
          </CharString>
          <CharString index="238">
            -206 73 121 51 callgsubr
            return
          </CharString>
          <CharString index="239">
            hstemhm
            48 44 -6 56 67 56 -8 45 return
          </CharString>
          <CharString index="240">
            -206 73 133 -3 callsubr
            return
          </CharString>
          <CharString index="241">
            hstem
            144 62 vstem
            206 return
          </CharString>
          <CharString index="242">
            124 callgsubr
            140 40 return
          </CharString>
          <CharString index="243">
            -33 callgsubr
            54 return
          </CharString>
          <CharString index="244">
            rmoveto
            22 -16 15 -15 vhcurveto
            return
          </CharString>
          <CharString index="245">
            168 callgsubr
            hintmask 11001000
            295 return
          </CharString>
          <CharString index="246" raw="1">
            1f130800 0b  
          </CharString>
          <CharString index="247">
            -73 -20 134 58 63 35 67 61 57 37 -75 -86 return
          </CharString>
          <CharString index="248">
            -6 110 callgsubr
            return
          </CharString>
          <CharString index="249">
            -16 -21 -14 hhcurveto
            -15 -17 21 29 return
          </CharString>
          <CharString index="250">
            305 rmoveto
            58 callgsubr
            return
          </CharString>
          <CharString index="251">
            9 8 vvcurveto
            17 -9 6 -6 -4 return
          </CharString>
          <CharString index="252">
            13 -4 17 -15 vhcurveto
            return
          </CharString>
          <CharString index="253">
            3 16 16 vhcurveto
            return
          </CharString>
          <CharString index="254">
            133 callsubr
            -34 40 hstemhm
            return
          </CharString>
          <CharString index="255">
            93 callgsubr
            -1 9 -5 5 -7 return
          </CharString>
          <CharString index="256">
            -19 -3 -15 -41 hvcurveto
            -94 234 173 -61 hlineto
            return
          </CharString>
          <CharString index="257">
            -4 23 62 22 306 22 62 23 hstem
            -5 25 return
          </CharString>
          <CharString index="258">
            -86 42 172 41 272 41 173 42 hstem
            return
          </CharString>
          <CharString index="259">
            104 rmoveto
            -80 hlineto
            79 186 rlineto
            1 hlineto
            endchar
          </CharString>
          <CharString index="260">
            105 -21 444 -20 hstem
            return
          </CharString>
          <CharString index="261">
            20 -72 callgsubr
            return
          </CharString>
          <CharString index="262">
            -20 hstem
            153 44 vstem
            return
          </CharString>
          <CharString index="263">
            -21 107 68 -40 40 hstemhm
            return
          </CharString>
          <CharString index="264">
            4 vhcurveto
            -140 178 140 178 rlineto
            return
          </CharString>
          <CharString index="265">
            75 callsubr
            vstem
            314 213 rmoveto
            return
          </CharString>
          <CharString index="266">
            67 hlineto
            84 35 -149 -121 hvcurveto
            endchar
          </CharString>
          <CharString index="267">
            8 154 callsubr
            return
          </CharString>
          <CharString index="268">
            -10 callgsubr
            24 45 return
          </CharString>
          <CharString index="269">
            -12 40 67 40 436 40 return
          </CharString>
          <CharString index="270">
            hstemhm
            31 42 -42 43 return
          </CharString>
          <CharString index="271">
            hstemhm
            144 62 return
          </CharString>
          <CharString index="272">
            70 callgsubr
            135 45 return
          </CharString>
          <CharString index="273">
            9 11 8 13 12 -11 8 -9 hvcurveto
            -16 return
          </CharString>
          <CharString index="274">
            hlineto
            -9 -13 -9 -14 -15 13 -8 9 hvcurveto
            return
          </CharString>
          <CharString index="275">
            hlineto
            -9 -11 -2 -8 -10 11 -2 9 hvcurveto
            return
          </CharString>
          <CharString index="276">
            hlineto
            -10 -12 -9 -15 -14 12 -9 10 hvcurveto
            return
          </CharString>
          <CharString index="277">
            23 33 callgsubr
            return
          </CharString>
          <CharString index="278">
            hlineto
            -9 -11 -8 -12 -13 11 -8 9 hvcurveto
            return
          </CharString>
          <CharString index="279">
            64 hstem
            -255 56 49 56 vstem
            -199 return
          </CharString>
          <CharString index="280">
            -20 132 callsubr
            return
          </CharString>
          <CharString index="281">
            20 -6 callgsubr
            endchar
          </CharString>
        <CharString name=".notdef">
          173 endchar
        </CharString>
        <CharString name="A">
          0 -13 callgsubr
          hstem
          -106 callsubr
          endchar
        </CharString>
        <CharString name="AE">
          -35 callsubr
        </CharString>
        <CharString name="AE.dup">
          -35 callsubr
        </CharString>
        <CharString name="AEacute">
          0 40 152 40 65 95 callsubr
          85 -10 callgsubr
          42 38 34 38 25 38 79 38 -32 38 hintmask 1011000010100000
          338 85 callgsubr
          -85 257 78 vlineto
          -29 callgsubr
          -78 234 hlineto
          hintmask 1101001111000000
          79 -61 hlineto
          -11 3 -21 16 16 3 21 11 vhcurveto
          31 callgsubr
          -191 -5 callgsubr
          10 hvcurveto
          -73 -531 rlineto
          -12 -20 0 -20 -20 20 0 9 hvcurveto
          46 hlineto
          160 callsubr
          -13 hvcurveto
          20 152 rlineto
          77 -152 hlineto
          -7 -20 -49 callgsubr
          132 hlineto
          hintmask 0101000110100000
          20 -6 callgsubr
          -161 199 rmoveto
          -71 hlineto
          46 339 rlineto
          25 hlineto
          hintmask 0000110000000000
          71 199 -107 callgsubr
        </CharString>
        <CharString name="Aacute">
          0 -13 callgsubr
          91 -10 callgsubr
          -102 callgsubr
          hintmask 00011000
          73 205 -107 callgsubr
        </CharString>
        <CharString name="Abreve">
          0 -13 callgsubr
          70 165 callgsubr
          -102 callgsubr
          hintmask 00011000
          120 184 -100 callgsubr
          endchar
        </CharString>
        <CharString name="Abreveacute">
          0 -13 callgsubr
          70 42 32 42 6 42 71 -20 hstemhm
          -102 callgsubr
          hintmask 00011110
          120 184 -100 callgsubr
          -47 137 -107 callgsubr
        </CharString>
        <CharString name="Abrevedotbelow">
          -206 73 133 -13 callgsubr
          70 42 54 -20 164 callsubr
          hintmask 01111100
          -106 callsubr
          120 184 -100 callgsubr
          hintmask 10000010
          -89 -919 rmoveto
          106 callgsubr
        </CharString>
        <CharString name="Abrevegrave">
          0 -13 callgsubr
          70 42 32 42 6 42 hstemhm
          -102 callgsubr
          hintmask 00011100
          120 184 -100 callgsubr
          -47 69 rmoveto
          -15 -8 -12 -14 -4 -7 3 3 -4 vhcurveto
          -90 66 rlineto
          -8 6 -10 8 9 vvcurveto
          14 9 10 11 9 10 -6 -7 10 vhcurveto
          78 -58 rlineto
          7 -5 11 -9 -7 vvcurveto
          endchar
        </CharString>
        <CharString name="Abrevehookabove">
          0 -13 callgsubr
          70 129 callgsubr
          hintmask 1110000000000000
          -106 callsubr
          hintmask 0001110001000000
          120 184 -100 callgsubr
          -53 169 rmoveto
          47 -33 26 -39 -30 -32 -25 -47 -12 8 -7 10 vhcurveto
          hintmask 0000101110000000
          -9 callsubr
          hintmask 0000000001000000
          22 9 22 24 20 vhcurveto
          hintmask 0000000010000000
          11 11 11 16 21 vvcurveto
          endchar
        </CharString>
        <CharString name="Abrevetilde">
          0 -13 callgsubr
          70 168 callgsubr
          -102 callgsubr
          hintmask 00011001
          120 184 -100 callgsubr
          143 vmoveto
          -90 callgsubr
          hintmask 00000010
          -41 callgsubr
          hintmask 00000100
          51 callsubr
          hintmask 00001001
          -95 callsubr
          hintmask 00000100
          -38 callgsubr
          hintmask 00000010
          -29 callsubr
        </CharString>
        <CharString name="Acaron">
          0 -13 callgsubr
          141 -20 -43 callsubr
          97 164 rmoveto
          -98 callgsubr
        </CharString>
        <CharString name="Acircumflex">
          0 -13 callgsubr
          82 -21 -43 callsubr
          97 118 -105 callsubr
          endchar
        </CharString>
        <CharString name="Acircumflexacute">
          0 -13 callgsubr
          82 -21 219 -20 hstemhm
          -102 callgsubr
          hintmask 00011000
          97 118 -88 callsubr
        </CharString>
        <CharString name="Acircumflexdotbelow">
          -206 73 133 -13 callgsubr
          82 -21 164 callsubr
          hintmask 01111000
          -106 callsubr
          97 118 -105 callsubr
          hintmask 10000100
          -66 -853 rmoveto
          106 callgsubr
        </CharString>
        <CharString name="Acircumflexgrave">
          0 -13 callgsubr
          82 -21 -43 callsubr
          97 118 -87 callgsubr
        </CharString>
        <CharString name="Acircumflexhookabove">
          0 -13 callgsubr
          64 41 callgsubr
          hintmask 1110001000000000
          -106 callsubr
          hintmask 0001000000000000
          97 118 -26 callsubr
        </CharString>
        <CharString name="Acircumflextilde">
          0 -13 callgsubr
          82 107 callsubr
          -102 callgsubr
          hintmask 00011001
          97 118 -105 callsubr
          23 184 -86 callsubr
          hintmask 00000010
          -41 callgsubr
          hintmask 00000100
          51 callsubr
          hintmask 00001001
          -95 callsubr
          hintmask 00000100
          -38 callgsubr
          hintmask 00000010
          -29 callsubr
        </CharString>
        <CharString name="Adblgrave">
          0 -13 callgsubr
          92 103 callgsubr
          -102 callgsubr
          hintmask 00011000
          -35 134 rmoveto
          -102 callsubr
          133 hmoveto
          -102 callsubr
          endchar
        </CharString>
        <CharString name="Adieresis">
          0 -13 callgsubr
          60 64 hstemhm
          86 56 67 56 -102 callgsubr
          hintmask 00011100
          -33 132 -73 callgsubr
        </CharString>
        <CharString name="Adotbelow">
          -206 73 133 -13 callgsubr
          164 callsubr
          hintmask 01110000
          -106 callsubr
          hintmask 10001000
          31 -735 rmoveto
          106 callgsubr
        </CharString>
        <CharString name="Agrave">
          0 -13 callgsubr
          91 -10 callgsubr
          -102 callgsubr
          hintmask 00011000
          72 137 -100 callsubr
        </CharString>
        <CharString name="Ahookabove">
          0 -13 callgsubr
          93 122 callsubr
          21 34 -102 callgsubr
          hintmask 00011111
          67 259 -101 callgsubr
        </CharString>
        <CharString name="Alpha">
          0 -13 callgsubr
          hstem
          -106 callsubr
          endchar
        </CharString>
        <CharString name="Amacron">
          0 -13 callgsubr
          80 41 -43 callsubr
          130 140 -89 callgsubr
        </CharString>
        <CharString name="Aogonek">
          -210 37 173 -13 callgsubr
          hstem
          195 40 32 40 vstem
          -20 callsubr
          endchar
        </CharString>
        <CharString name="Aogonekacute">
          -210 37 173 -13 callgsubr
          91 -10 callgsubr
          195 40 32 40 hintmask 11110011
          -20 callsubr
          hintmask 00001100
          73 211 -107 callgsubr
        </CharString>
        <CharString name="Aring">
          0 40 135 41 407 22 -20 -20 120 22 hstemhm
          120 27 56 27 hintmask 11010000
          -106 callsubr
          hintmask 00101110
          28 120 -50 callgsubr
        </CharString>
        <CharString name="Aringacute">
          0 40 135 41 409 20 80 20 0 20 119 -20 hstemhm
          120 27 56 27 -102 callgsubr
          hintmask 00110111
          28 120 27 callgsubr
          hintmask 00001001
          -15 8 -12 14 4 7 3 3 4 vhcurveto
          90 66 rlineto
          8 6 10 8 9 vvcurveto
          endchar
        </CharString>
        <CharString name="Atilde">
          0 -13 callgsubr
          60 -31 callsubr
          -102 callgsubr
          hintmask 00010010
          119 181 -86 callsubr
          hintmask 00000100
          -41 callgsubr
          hintmask 00001000
          51 callsubr
          hintmask 00010010
          -95 callsubr
          hintmask 00001000
          -38 callgsubr
          hintmask 00000100
          -29 callsubr
        </CharString>
        <CharString name="B">
          -13 callsubr
        </CharString>
        <CharString name="Beta">
          -13 callsubr
        </CharString>
        <CharString name="C">
          32 callgsubr
          hstem
          23 45 214 45 vstem
          -74 callgsubr
          -184 79 -134 86 79 60 89 88 hvcurveto
          endchar
        </CharString>
        <CharString name="Cacute">
          158 callgsubr
          23 45 214 45 hintmask 11001100
          -74 callgsubr
          -184 79 -134 86 79 60 89 88 hvcurveto
          hintmask 00110000
          -69 605 -107 callgsubr
        </CharString>
        <CharString name="Ccaron">
          32 callgsubr
          123 -20 hstemhm
          23 45 214 45 hintmask 11011000
          -74 callgsubr
          -184 79 -134 86 79 60 89 88 hvcurveto
          hintmask 00101000
          -45 564 rmoveto
          -98 callgsubr
        </CharString>
        <CharString name="Ccedilla">
          -214 41 161 51 callgsubr
          hstemhm
          23 45 116 46 -24 46 0 44 -14 45 hintmask 01111001
          -74 callgsubr
          -181 76 -133 85 -4 hvcurveto
          -27 vlineto
          hintmask 10000100
          9 callsubr
          -14 hlineto
          -9 93 callsubr
          hvcurveto
          hintmask 00001010
          52 90 0 93 39 -22 36 -44 13 hvcurveto
          29 vlineto
          hintmask 00000001
          56 25 41 73 71 vvcurveto
          endchar
        </CharString>
        <CharString name="Ccircumflex">
          109 callgsubr
          hstemhm
          23 45 214 45 hintmask 11011000
          -74 callgsubr
          -184 79 -134 86 79 60 89 88 hvcurveto
          hintmask 00101000
          -45 518 -105 callsubr
          endchar
        </CharString>
        <CharString name="Cdotaccent">
          32 callgsubr
          54 74 hstemhm
          23 45 86 62 66 45 hintmask 11010100
          -74 callgsubr
          -184 79 -134 86 79 60 89 88 hvcurveto
          hintmask 00101000
          -111 549 -65 callsubr
        </CharString>
        <CharString name="Chi">
          -18 callsubr
        </CharString>
        <CharString name="D">
          0 40 531 40 hstem
          52 45 186 45 vstem
          -50 callsubr
          endchar
        </CharString>
        <CharString name="Dcaron">
          102 callgsubr
          52 45 186 45 hintmask 11011000
          -50 callsubr
          hintmask 00100000
          -55 428 rmoveto
          -98 callgsubr
        </CharString>
        <CharString name="Dcroat">
          -8 callgsubr
        </CharString>
        <CharString name="Ddotbelow">
          23 callgsubr
          hstemhm
          52 45 3 62 121 45 hintmask 01110100
          -50 callsubr
          hintmask 10001000
          -121 -471 rmoveto
          106 callgsubr
        </CharString>
        <CharString name="Delta">
          0 46 579 -20 hstem
          330 12 rmoveto
          -119 577 rlineto
          33 -7 -9 3 -20 hhcurveto
          -20 -10 -3 -33 -7 hvcurveto
          -118 -572 rlineto
          0 -1 -5 -3 vvcurveto
          -9 3 14 0 6 hhcurveto
          265 hlineto
          9 10 0 12 4 hvcurveto
          -50 34 rmoveto
          -210 hlineto
          105 518 rlineto
          endchar
        </CharString>
        <CharString name="Dlinebelow">
          -189 41 148 -32 callgsubr
          hstemhm
          52 45 186 45 hintmask 01111000
          -50 callsubr
          hintmask 10000000
          -22 -470 -89 callgsubr
        </CharString>
        <CharString name="E">
          11 callgsubr
          22 callsubr
          hintmask 11111010
          -96 callgsubr
          hintmask 10110100
          -99 callgsubr
          hintmask 00000010
          174 callsubr
        </CharString>
        <CharString name="Eacute">
          11 callgsubr
          85 -21 119 68 callsubr
          hintmask 1110011010000000
          -96 callgsubr
          hintmask 1010010100000000
          -99 callgsubr
          hintmask 0000000010000000
          20 -6 callgsubr
          hintmask 0001100000000000
          -92 737 -107 callgsubr
        </CharString>
        <CharString name="Ebreve">
          11 callgsubr
          64 42 54 68 callsubr
          hintmask 1110011010000000
          -96 callgsubr
          hintmask 1010010100000000
          -99 callgsubr
          hintmask 0000000010000000
          20 -6 callgsubr
          hintmask 0001100010000000
          -45 716 -100 callgsubr
          endchar
        </CharString>
        <CharString name="Ecaron">
          11 callgsubr
          135 68 callsubr
          hintmask 11101101
          -96 callgsubr
          hintmask 10101010
          -99 callgsubr
          hintmask 00000001
          20 -6 callgsubr
          hintmask 00010000
          -68 696 rmoveto
          -98 callgsubr
        </CharString>
        <CharString name="Ecircumflex">
          121 callsubr
          22 callsubr
          hintmask 11101101
          -96 callgsubr
          hintmask 10101010
          -99 callgsubr
          hintmask 00000001
          20 -6 callgsubr
          hintmask 00010000
          -68 650 -105 callsubr
          endchar
        </CharString>
        <CharString name="Ecircumflexacute">
          121 callsubr
          219 68 callsubr
          hintmask 1110011010000000
          -96 callgsubr
          hintmask 1010010100000000
          -99 callgsubr
          hintmask 0000000010000000
          20 -6 callgsubr
          hintmask 0001100000000000
          -68 650 -88 callsubr
        </CharString>
        <CharString name="Ecircumflexdotbelow">
          -206 73 133 -1 callgsubr
          76 -21 108 callsubr
          hintmask 0111010101000000
          -96 callgsubr
          hintmask 0101010010000000
          -99 callgsubr
          hintmask 0000100001000000
          20 -6 callgsubr
          -68 650 -105 callsubr
          hintmask 1000001000000000
          -66 -853 rmoveto
          106 callgsubr
        </CharString>
        <CharString name="Ecircumflexgrave">
          121 callsubr
          22 callsubr
          hintmask 11101101
          -96 callgsubr
          hintmask 10101010
          -99 callgsubr
          hintmask 00000001
          20 -6 callgsubr
          hintmask 00010000
          -68 650 -87 callgsubr
        </CharString>
        <CharString name="Ecircumflexhookabove">
          11 callgsubr
          58 33 -15 -21 267 33 hstemhm
          62 45 68 36 -10 44 -26 35 -17 35 -33 36 0 34 -29 45 -30 45 hintmask 1110001010000010
          -96 callgsubr
          hintmask 1010001000000100
          -99 callgsubr
          hintmask 0000000000000010
          20 -6 callgsubr
          hintmask 0001000000000000
          -68 650 -1 callsubr
          hintmask 0001000100010000
          5 4 -1 4 9 hvcurveto
          64 29 64 -29 rlineto
          hintmask 0000110100101000
          -59 callsubr
          hintmask 0000000001000000
          -44 callgsubr
          hintmask 0000000000100000
          64 callgsubr
          vhcurveto
          hintmask 0000000001001000
          -17 callgsubr
        </CharString>
        <CharString name="Ecircumflextilde">
          0 40 257 40 234 40 76 107 callsubr
          62 45 94 44 35 45 -30 45 hintmask 1110000011010000
          -96 callgsubr
          hintmask 1010000010100000
          -99 callgsubr
          hintmask 0000000000010000
          20 -6 callgsubr
          hintmask 0001100100000000
          -68 650 -105 callsubr
          23 184 -86 callsubr
          hintmask 0000001000000000
          -41 callgsubr
          hintmask 0000010000000000
          51 callsubr
          hintmask 0000100100000000
          -95 callsubr
          hintmask 0000010000000000
          -38 callgsubr
          hintmask 0000001000010000
          -29 callsubr
        </CharString>
        <CharString name="Edblgrave">
          11 callgsubr
          86 -21 121 68 callsubr
          hintmask 1110011010000000
          -96 callgsubr
          hintmask 1010010100000000
          -99 callgsubr
          hintmask 0000000010000000
          20 -6 callgsubr
          hintmask 0001100000000000
          -181 666 rmoveto
          -102 callsubr
          133 hmoveto
          -102 callsubr
          endchar
        </CharString>
        <CharString name="Edieresis">
          11 callgsubr
          54 64 hstemhm
          62 45 -21 56 59 44 -36 56 15 45 -30 45 hintmask 1110101001000000
          -96 callgsubr
          hintmask 1010100010000000
          -99 callgsubr
          hintmask 0000000001000000
          20 -6 callgsubr
          hintmask 0001010100000000
          -198 664 -73 callgsubr
        </CharString>
        <CharString name="Edotaccent">
          11 callgsubr
          66 74 108 callsubr
          hintmask 1110101010000000
          -96 callgsubr
          hintmask 1010100100000000
          -99 callgsubr
          hintmask 0000000010000000
          20 -6 callgsubr
          hintmask 0001010000000000
          -134 681 -65 callsubr
        </CharString>
        <CharString name="Edotbelow">
          -206 73 133 -1 callgsubr
          108 callsubr
          hintmask 0111101010000000
          -96 callgsubr
          hintmask 0101100100000000
          -99 callgsubr
          hintmask 0000000010000000
          20 -6 callgsubr
          hintmask 1000010000000000
          -134 -203 rmoveto
          106 callgsubr
        </CharString>
        <CharString name="Egrave">
          11 callgsubr
          85 -21 119 68 callsubr
          hintmask 1110011010000000
          -96 callgsubr
          hintmask 1010010100000000
          -99 callgsubr
          hintmask 0000000010000000
          20 -6 callgsubr
          hintmask 0001100000000000
          -93 669 -100 callsubr
        </CharString>
        <CharString name="Ehookabove">
          11 callgsubr
          87 94 callgsubr
          62 45 1 36 8 35 14 44 -37 34 38 45 -30 45 hintmask 1110010010010000
          -96 callgsubr
          hintmask 1010010000100000
          -99 callgsubr
          hintmask 0000000000010000
          20 -6 callgsubr
          hintmask 0001101101000000
          -98 791 -101 callgsubr
        </CharString>
        <CharString name="Emacron">
          11 callgsubr
          74 41 22 callsubr
          hintmask 11101101
          -96 callgsubr
          hintmask 10101010
          -99 callgsubr
          hintmask 00000001
          20 -6 callgsubr
          hintmask 00010000
          -35 672 -89 callgsubr
        </CharString>
        <CharString name="Eng">
          -33 callgsubr
          hstem
          62 45 182 44 vstem
          333 306 rmoveto
          168 -32 149 -108 -34 -29 -20 -35 -23 vhcurveto
          37 -26 callgsubr
          -531 -29 -107 callsubr
          103 -77 callsubr
          -29 405 hlineto
          74 7 33 58 46 hhcurveto
          77 19 -141 -130 -106 0 -126 -35 -32 hvcurveto
          7 -5 -6 4 -8 hhcurveto
          -13 -15 -13 -20 -20 15 -12 13 88 10 168 150 hvcurveto
          endchar
        </CharString>
        <CharString name="Eogonek">
          -210 37 173 -1 callgsubr
          131 callgsubr
          hintmask 0110110000100000
          340 33 rmoveto
          83 vlineto
          15 -4 18 -18 -19 -4 -17 -16 vhcurveto
          -76 -188 257 94 vlineto
          hintmask 0000001000000000
          -40 3 -15 19 vhcurveto
          hintmask 0000010000000000
          19 3 17 15 hvcurveto
          87 vlineto
          hintmask 0000001000000000
          15 -3 17 -19 vhcurveto
          hintmask 0011110001000000
          149 callsubr
          hintmask 0000000100000000
          47 callgsubr
          vhcurveto
          hintmask 0101100001000000
          19 4 16 16 hvcurveto
          -87 callsubr
          hintmask 1100000100000000
          215 hlineto
          -46 -43 -16 -33 -45 18 callsubr
          hintmask 1100000010000000
          114 callsubr
          hintmask 0000000000100000
          174 callsubr
        </CharString>
        <CharString name="Eogonekacute">
          -210 37 173 -1 callgsubr
          85 -21 119 -20 131 callgsubr
          hintmask 0110001100001000
          340 33 rmoveto
          83 vlineto
          15 -4 18 -18 -19 -4 -17 -16 vhcurveto
          -76 -188 257 94 vlineto
          hintmask 0000000010000000
          -40 3 -15 19 vhcurveto
          hintmask 0000000100000000
          19 3 17 15 hvcurveto
          87 vlineto
          hintmask 0000000010000000
          15 -3 17 -19 vhcurveto
          hintmask 0011001100010000
          149 callsubr
          hintmask 0000000001000000
          47 callgsubr
          vhcurveto
          hintmask 0101001000010000
          19 4 16 16 hvcurveto
          -87 callsubr
          hintmask 1100000001000000
          215 hlineto
          -46 -43 -16 -33 -45 18 callsubr
          hintmask 1100000000100000
          114 callsubr
          hintmask 0000000000001000
          20 -6 callgsubr
          hintmask 0000110000000000
          -92 737 -107 callgsubr
        </CharString>
        <CharString name="Epsilon">
          11 callgsubr
          22 callsubr
          hintmask 11111010
          -96 callgsubr
          hintmask 10110100
          -99 callgsubr
          hintmask 00000010
          174 callsubr
        </CharString>
        <CharString name="Ereversed">
          11 callgsubr
          hstemhm
          15 45 -30 45 35 44 94 45 hintmask 11101110
          340 49 callgsubr
          -19 531 19 -77 callsubr
          -254 hlineto
          -20 -8 -6 -27 hvcurveto
          -68 vlineto
          -16 4 -16 19 19 3 17 15 vhcurveto
          61 173 -234 -94 vlineto
          41 -3 15 -19 -19 -3 -17 -15 vhcurveto
          -87 vlineto
          59 callgsubr
          15 40 vhcurveto
          94 -257 hlineto
          hintmask 10010000
          -188 76 hlineto
          16 -4 17 -19 -18 -4 -18 -15 vhcurveto
          -83 vlineto
          -28 8 -5 20 vhcurveto
          269 hlineto
          -23 callgsubr
        </CharString>
        <CharString name="Eta">
          90 callsubr
          108 callgsubr
          hintmask 11101101
          -73 callsubr
          hintmask 10110000
          -52 callgsubr
          hintmask 11001010
          -27 callgsubr
          258 150 -258 -16 hlineto
          hintmask 10000101
          15 callsubr
          endchar
        </CharString>
        <CharString name="Eth">
          -8 callgsubr
        </CharString>
        <CharString name="Etilde">
          0 40 257 40 234 30 callsubr
          62 45 94 44 35 45 -30 45 hintmask 1110000110100000
          -96 callgsubr
          hintmask 1010000101000000
          -99 callgsubr
          hintmask 0000000000100000
          20 -6 callgsubr
          hintmask 0001001000000000
          -46 713 -47 callsubr
        </CharString>
        <CharString name="Euro">
          -12 40 194 40 88 40 193 40 hstemhm
          36 44 -5 44 152 44 hintmask 11110110
          315 4 rmoveto
          107 vlineto
          11 -10 5 -7 vhcurveto
          -10 hlineto
          -9 -7 -10 -11 -1 hvcurveto
          -43 -4 -21 -35 -28 hhcurveto
          -30 -22 35 38 -15 hvcurveto
          -13 31 -8 35 -7 55 rrcurveto
          109 149 callgsubr
          -10 2 -6 hhcurveto
          -114 hlineto
          -1 16 0 14 14 vvcurveto
          14 0 14 1 16 vhcurveto
          133 149 callgsubr
          -11 2 -5 hhcurveto
          -132 hlineto
          7 54 8 35 13 31 rrcurveto
          38 15 22 35 30 hhcurveto
          28 21 -35 -43 4 hvcurveto
          -11 1 7 -10 9 hhcurveto
          10 hlineto
          59 callsubr
          hvcurveto
          107 vlineto
          11 -10 5 -7 vhcurveto
          -3 hlineto
          -6 -5 -4 -6 -4 hvcurveto
          -8 -16 rlineto
          16 -16 -22 10 -22 hhcurveto
          -43 -35 -45 -56 -22 hvcurveto
          hintmask 00101000
          -16 -41 -10 -44 -6 -47 rrcurveto
          -27 hlineto
          -7 -6 -8 -9 -2 hvcurveto
          -2 -14 rlineto
          -8 -1 10 -1 6 hhcurveto
          26 hlineto
          hintmask 01000100
          -2 -26 0 -9 -9 vvcurveto
          -9 0 -9 2 -26 vhcurveto
          -24 hlineto
          -7 -6 -8 -9 -2 hvcurveto
          hintmask 11001010
          -2 -14 rlineto
          -8 -1 10 -1 6 hhcurveto
          29 hlineto
          6 -48 10 -44 16 -41 rrcurveto
          -56 22 35 -45 43 hhcurveto
          22 22 10 18 16 hvcurveto
          8 -17 rlineto
          -7 4 5 -4 6 hhcurveto
          3 hlineto
          59 callsubr
          hvcurveto
          endchar
        </CharString>
        <CharString name="F">
          0 49 callsubr
          hstem
          67 44 97 44 34 45 vstem
          331 510 rmoveto
          68 40 callgsubr
          -258 8 callgsubr
          -531 -22 -107 callsubr
          100 -77 callsubr
          -34 246 97 hlineto
          -41 3 -15 19 19 3 17 16 vhcurveto
          86 vlineto
          16 -3 17 -19 -19 -3 -15 -41 vhcurveto
          -97 245 175 -61 hlineto
          -15 4 -17 18 26 callsubr
          endchar
        </CharString>
        <CharString name="G">
          -12 69 callsubr
          hstem
          21 44 193 45 vstem
          -97 callgsubr
          endchar
        </CharString>
        <CharString name="Gacute">
          -12 69 callsubr
          73 -10 callgsubr
          21 44 193 45 hintmask 11100110
          -97 callgsubr
          hintmask 00011000
          -87 531 -107 callgsubr
        </CharString>
        <CharString name="Gamma">
          -33 callgsubr
          hstem
          71 44 171 44 vstem
          330 510 rmoveto
          31 callgsubr
          -256 -48 callsubr
          105 hlineto
          -29 callgsubr
          -37 531 171 -61 hlineto
          -15 3 -17 18 20 146 callsubr
          endchar
        </CharString>
        <CharString name="Gbreve">
          -12 69 callsubr
          52 165 callgsubr
          21 44 193 45 hintmask 11100110
          -97 callgsubr
          hintmask 00011000
          -40 510 -100 callgsubr
          endchar
        </CharString>
        <CharString name="Gcaron">
          -12 69 callsubr
          123 -20 hstemhm
          21 44 193 45 hintmask 11101100
          -97 callgsubr
          hintmask 00010000
          -63 490 rmoveto
          -98 callgsubr
        </CharString>
        <CharString name="Gcedilla">
          40 callsubr
          45 69 callsubr
          hstem
          21 44 82 69 42 45 vstem
          -97 callgsubr
          -119 -359 -98 callsubr
        </CharString>
        <CharString name="Gcircumflex">
          -12 69 callsubr
          64 -21 hstemhm
          21 44 193 45 hintmask 11101100
          -97 callgsubr
          hintmask 00010000
          -63 444 -105 callsubr
          endchar
        </CharString>
        <CharString name="Gcommaaccent">
          40 callsubr
          45 69 callsubr
          hstemhm
          21 44 82 69 42 45 hintmask 00111101
          -97 callgsubr
          hintmask 11000010
          -119 -359 -98 callsubr
        </CharString>
        <CharString name="Gdotaccent">
          -12 69 callsubr
          54 74 hstemhm
          21 44 79 62 52 45 hintmask 11101010
          -97 callgsubr
          hintmask 00010100
          -129 475 -65 callsubr
        </CharString>
        <CharString name="H">
          90 callsubr
          hstem
          206 81 callgsubr
          cntrmask 00011100
          -73 callsubr
          16 -531 4 callsubr
          9 19 127 callgsubr
        </CharString>
        <CharString name="H_uni0303">
          0 40 258 41 232 40 54 43 -23 43 -25 43 -23 43 108 callgsubr
          hintmask 1110000011010000
          -73 callsubr
          hintmask 1010000100000000
          -52 callgsubr
          hintmask 1100000010100000
          -27 callgsubr
          258 150 -258 -16 hlineto
          hintmask 1000000001010000
          15 callsubr
          hintmask 0001001000000000
          -44 726 -86 callsubr
          hintmask 0000010000000000
          -41 callgsubr
          hintmask 0000100100000000
          -6 -8 -4 -6 -4 vvcurveto
          hintmask 0001001000000000
          -95 callsubr
          hintmask 0000100000000000
          24 23 27 36 31 hvcurveto
          hintmask 0000010000010000
          -29 callsubr
        </CharString>
        <CharString name="Hbar">
          0 40 258 41 104 40 88 40 hstem
          206 81 callgsubr
          cntrmask 00001110
          338 49 callgsubr
          -16 403 22 hlineto
          67 callgsubr
          -22 88 16 callsubr
          -76 -107 callsubr
          16 -88 -150 88 16 -77 callsubr
          -77 -82 callsubr
          16 -88 -21 hlineto
          -9 156 callgsubr
          9 hvcurveto
          21 -403 4 callsubr
          98 callgsubr
          hvcurveto
          -88 319 rmoveto
          -150 104 150 hlineto
          endchar
        </CharString>
        <CharString name="Hbrevebelow">
          -217 42 54 -20 141 92 callsubr
          108 callgsubr
          hintmask 0011101101000000
          -73 callsubr
          hintmask 0010110000000000
          -52 callgsubr
          hintmask 0011001010000000
          -27 callgsubr
          258 150 -258 -16 hlineto
          hintmask 0010000101000000
          15 callsubr
          hintmask 1100010000000000
          -43 -163 -100 callgsubr
          endchar
        </CharString>
        <CharString name="Hcircumflex">
          90 callsubr
          76 -21 108 callgsubr
          hintmask 1110011010000000
          -73 callsubr
          hintmask 1010100000000000
          -52 callgsubr
          hintmask 1100010100000000
          -27 callgsubr
          258 150 -258 -16 hlineto
          hintmask 1000001010000000
          15 callsubr
          hintmask 0001000000000000
          -66 663 -105 callsubr
          endchar
        </CharString>
        <CharString name="Hdieresis">
          90 callsubr
          54 64 hstemhm
          55 45 -14 56 -42 44 62 44 -41 56 -15 44 0 44 hintmask 1110001100100000
          -73 callsubr
          hintmask 1010100000000000
          -52 callgsubr
          hintmask 1100001001000000
          -27 callgsubr
          258 150 -258 -16 hlineto
          hintmask 1000000100100000
          15 callsubr
          hintmask 0001010010000000
          -196 677 -73 callgsubr
        </CharString>
        <CharString name="Hdotbelow">
          -206 73 133 92 callsubr
          70 callsubr
          0 62 0 81 callgsubr
          hintmask 0111010101000000
          -73 callsubr
          hintmask 0111101010000000
          16 -531 4 callsubr
          hintmask 0000000001000000
          123 callsubr
          hintmask 1000010100000000
          -132 -190 rmoveto
          106 callgsubr
        </CharString>
        <CharString name="I">
          120 callsubr
          -99 callsubr
          endchar
        </CharString>
        <CharString name="Iacute">
          48 callsubr
          153 44 hintmask 11001000
          -99 callsubr
          hintmask 00110000
          -49 750 -107 callgsubr
        </CharString>
        <CharString name="Ibreve">
          -33 callgsubr
          64 165 callgsubr
          153 44 hintmask 11001000
          -99 callsubr
          hintmask 00110000
          -2 729 -100 callgsubr
          endchar
        </CharString>
        <CharString name="Icaron">
          102 callgsubr
          153 44 hintmask 11010000
          -99 callsubr
          hintmask 00100000
          -25 709 rmoveto
          -98 callgsubr
        </CharString>
        <CharString name="Icircumflex">
          -33 callgsubr
          76 -21 hstemhm
          153 44 hintmask 11010000
          -99 callsubr
          hintmask 00100000
          -25 663 -105 callsubr
          endchar
        </CharString>
        <CharString name="Idblgrave">
          -33 callgsubr
          86 103 callgsubr
          153 44 hintmask 11001000
          -99 callsubr
          hintmask 00110000
          -138 679 rmoveto
          -102 callsubr
          133 hmoveto
          -102 callsubr
          endchar
        </CharString>
        <CharString name="Idieresis">
          136 callsubr
          64 hstemhm
          86 56 11 44 12 56 hintmask 11001000
          -99 callsubr
          hintmask 00110100
          -155 677 -73 callgsubr
        </CharString>
        <CharString name="Idieresisacute">
          136 callsubr
          135 callgsubr
          86 56 11 44 12 56 hintmask 11000010
          -99 callsubr
          hintmask 00111101
          -155 677 -89 callsubr
          -17 190 -107 callgsubr
        </CharString>
        <CharString name="Idotaccent">
          -33 callgsubr
          66 74 164 callsubr
          -53 44 hintmask 11001000
          -99 callsubr
          hintmask 00110000
          -91 694 -65 callsubr
        </CharString>
        <CharString name="Idotbelow">
          23 callgsubr
          164 callsubr
          -53 44 hintmask 01101000
          -99 callsubr
          hintmask 10010000
          -91 -190 rmoveto
          106 callgsubr
        </CharString>
        <CharString name="Igrave">
          48 callsubr
          153 44 hintmask 11001000
          -99 callsubr
          hintmask 00110000
          -50 682 -100 callsubr
        </CharString>
        <CharString name="Ihookabove">
          -33 callgsubr
          87 122 callsubr
          -34 44 11 34 hintmask 11000010
          -99 callsubr
          hintmask 00111101
          -55 804 -101 callgsubr
        </CharString>
        <CharString name="Imacron">
          -33 callgsubr
          74 41 hstemhm
          153 44 hintmask 11010000
          -99 callsubr
          hintmask 00100000
          8 685 -89 callgsubr
        </CharString>
        <CharString name="Imacron.alt">
          -33 callgsubr
          74 41 hstemhm
          153 44 hintmask 11010000
          -99 callsubr
          hintmask 00100000
          -50 685 12 callsubr
        </CharString>
        <CharString name="Iogonek">
          -210 37 173 -32 callgsubr
          hstemhm
          111 40 0 46 -17 40 hintmask 01101000
          297 -66 callgsubr
          -73 531 73 hlineto
          23 callsubr
          -189 -107 callsubr
          72 -531 -72 -107 callsubr
          85 hlineto
          hintmask 11010100
          38 callgsubr
          endchar
        </CharString>
        <CharString name="Iogonekacute">
          -210 37 173 -32 callgsubr
          85 -10 callgsubr
          111 40 0 46 -17 40 hintmask 01100010
          297 -66 callgsubr
          -73 531 73 hlineto
          23 callsubr
          -189 -107 callsubr
          72 -531 -72 -107 callsubr
          85 hlineto
          hintmask 11000101
          38 callgsubr
          hintmask 00011000
          -49 750 -107 callgsubr
        </CharString>
        <CharString name="Iota">
          120 callsubr
          -99 callsubr
          endchar
        </CharString>
        <CharString name="Itilde">
          0 40 531 30 callsubr
          153 44 hintmask 11000010
          -99 callsubr
          hintmask 00100100
          -3 726 -86 callsubr
          hintmask 00001000
          -41 callgsubr
          hintmask 00010000
          51 callsubr
          hintmask 00100100
          -95 callsubr
          hintmask 00010000
          -38 callgsubr
          hintmask 00001000
          -29 callsubr
        </CharString>
        <CharString name="J">
          162 callsubr
          hstem
          155 callgsubr
          vstem
          -48 callgsubr
          endchar
        </CharString>
        <CharString name="J_uni030C.cap">
          -12 40 67 40 322 156 callsubr
          155 callgsubr
          86 69 hintmask 1100111110000000
          -48 callgsubr
          108 -43 rmoveto
          37 -20 26 -20 -17 -12 -16 -17 vhcurveto
          hintmask 0011000010000000
          -22 14 -13 15 vhcurveto
          0 6 1 6 4 vhcurveto
          -5 -46 -11 -29 -37 -19 -1 -4 rcurveline
          -8 10 -6 6 13 53 33 79 vhcurveto
          endchar
        </CharString>
        <CharString name="Jacute">
          162 callsubr
          85 -10 callgsubr
          155 callgsubr
          hintmask 11100111
          -48 callgsubr
          hintmask 00011000
          -14 179 -107 callgsubr
        </CharString>
        <CharString name="Jcircumflex">
          162 callsubr
          76 -21 hstemhm
          155 callgsubr
          hintmask 11101110
          -48 callgsubr
          hintmask 00010000
          10 92 -105 callsubr
          endchar
        </CharString>
        <CharString name="K">
          -33 callgsubr
          hstem
          53 41 vstem
          -70 callsubr
          endchar
        </CharString>
        <CharString name="Kappa">
          -33 callgsubr
          hstem
          53 41 vstem
          -70 callsubr
          endchar
        </CharString>
        <CharString name="Kcedilla">
          30 callgsubr
          hstem
          53 41 53 69 vstem
          -70 callsubr
          -118 -140 -98 callsubr
        </CharString>
        <CharString name="Kcommaaccent">
          30 callgsubr
          hstemhm
          53 41 53 69 hintmask 00111000
          -70 callsubr
          hintmask 11000100
          -118 -140 -98 callsubr
        </CharString>
        <CharString name="L">
          -33 callgsubr
          hstem
          71 44 171 44 vstem
          -82 callgsubr
          endchar
        </CharString>
        <CharString name="L_uni0303">
          0 40 531 30 callsubr
          71 44 171 44 hintmask 11000011
          -82 callgsubr
          hintmask 00100100
          -109 713 -86 callsubr
          hintmask 00001000
          -41 callgsubr
          hintmask 00010000
          51 callsubr
          hintmask 00100100
          -95 callsubr
          hintmask 00010000
          -38 callgsubr
          hintmask 00001000
          -29 callsubr
        </CharString>
        <CharString name="Lacute">
          48 callsubr
          71 44 171 44 hintmask 11001100
          -82 callgsubr
          hintmask 00110000
          -155 737 -107 callgsubr
        </CharString>
        <CharString name="Lambda">
          0 40 585 -20 hstem
          334 20 rmoveto
          20 -18 0 -18 vhcurveto
          -87 548 rlineto
          37 -6 -13 0 -17 hhcurveto
          -26 -5 -8 -29 -5 hvcurveto
          -87 -548 rlineto
          -19 -27 callsubr
          70 -77 callsubr
          -17 hlineto
          79 519 rlineto
          1 hlineto
          78 -519 rlineto
          -17 hlineto
          -9 -19 -49 callgsubr
          70 hlineto
          112 callsubr
          endchar
        </CharString>
        <CharString name="Lcaron">
          0 40 417 156 callsubr
          71 44 117 69 -15 44 hintmask 10011010
          -82 callgsubr
          -29 515 rmoveto
          37 -20 26 -20 vhcurveto
          hintmask 01100100
          18 callgsubr
        </CharString>
        <CharString name="Lcedilla">
          30 callgsubr
          hstem
          71 44 32 69 70 44 vstem
          -82 callgsubr
          -114 -153 -98 callsubr
        </CharString>
        <CharString name="Lcommaaccent">
          30 callgsubr
          hstemhm
          71 44 32 69 70 44 hintmask 00111010
          -82 callgsubr
          hintmask 11000100
          -114 -153 -98 callsubr
        </CharString>
        <CharString name="Ldot">
          0 40 241 74 216 40 hstemhm
          71 44 122 62 -13 44 hintmask 11110100
          -82 callgsubr
          -31 285 137 callsubr
          hintmask 01001000
          141 callgsubr
          endchar
        </CharString>
        <CharString name="Ldotbelow">
          23 callgsubr
          hstemhm
          71 44 29 62 80 44 hintmask 01110100
          -82 callgsubr
          hintmask 10001000
          -124 -203 rmoveto
          106 callgsubr
        </CharString>
        <CharString name="Ldotbelowmacron">
          23 callgsubr
          74 41 hstemhm
          71 44 29 62 80 44 hintmask 11101110
          -82 callgsubr
          -124 -203 -94 callsubr
          hintmask 00010000
          24 875 -89 callgsubr
        </CharString>
        <CharString name="Lslash">
          -33 callgsubr
          hstem
          71 44 171 44 vstem
          330 33 rmoveto
          84 vlineto
          14 -3 18 -19 -19 -3 -17 -15 vhcurveto
          -77 -171 277 vlineto
          145 142 rlineto
          6 6 4 4 8 vvcurveto
          20 -23 4 -10 -10 vhcurveto
          -122 -121 rlineto
          201 37 vlineto
          -29 callgsubr
          -105 -107 callsubr
          24 -243 hlineto
          -49 -52 rlineto
          -5 -5 -2 -5 -8 vvcurveto
          -15 19 -9 11 12 vhcurveto
          26 28 rlineto
          -234 -24 vlineto
          -106 callgsubr
          256 hlineto
          19 -6 callgsubr
          endchar
        </CharString>
        <CharString name="M">
          -33 callgsubr
          hstem
          43 39 187 38 vstem
          -53 callgsubr
          endchar
        </CharString>
        <CharString name="Mdotbelow">
          23 callgsubr
          hstemhm
          43 39 62 62 63 38 hintmask 01110100
          -53 callgsubr
          hintmask 10001000
          -137 -190 rmoveto
          106 callgsubr
        </CharString>
        <CharString name="Mu">
          -33 callgsubr
          hstem
          43 39 187 38 vstem
          -53 callgsubr
          endchar
        </CharString>
        <CharString name="N">
          -33 callgsubr
          hstem
          59 39 155 38 vstem
          -97 callsubr
          endchar
        </CharString>
        <CharString name="Nacute">
          48 callsubr
          59 39 155 38 hintmask 11001100
          -97 callsubr
          hintmask 00110000
          -86 179 -107 callgsubr
        </CharString>
        <CharString name="Ncaron">
          102 callgsubr
          59 39 155 38 hintmask 11011000
          -97 callsubr
          hintmask 00100000
          -62 138 rmoveto
          -98 callgsubr
        </CharString>
        <CharString name="Ncedilla">
          30 callgsubr
          hstem
          59 39 49 69 37 38 vstem
          -97 callsubr
          -118 -711 -98 callsubr
        </CharString>
        <CharString name="Ncommaaccent">
          30 callgsubr
          hstemhm
          59 39 49 69 37 38 hintmask 00111010
          -97 callsubr
          hintmask 11000100
          -118 -711 -98 callsubr
        </CharString>
        <CharString name="Ndotaccent">
          136 callsubr
          74 hstemhm
          59 39 46 62 47 38 hintmask 11010100
          -97 callsubr
          hintmask 00101000
          -128 111 -65 callsubr
        </CharString>
        <CharString name="Ndotbelow">
          23 callgsubr
          hstemhm
          59 39 46 62 47 38 hintmask 01110100
          -97 callsubr
          hintmask 10001000
          -128 -761 rmoveto
          106 callgsubr
        </CharString>
        <CharString name="Ntilde">
          0 40 531 30 callsubr
          59 39 155 38 hintmask 11000011
          -97 callsubr
          hintmask 00100100
          -40 155 -86 callsubr
          hintmask 00001000
          -41 callgsubr
          hintmask 00010000
          51 callsubr
          hintmask 00100100
          -95 callsubr
          hintmask 00010000
          -38 callgsubr
          hintmask 00001000
          -29 callsubr
        </CharString>
        <CharString name="Nu">
          -33 callgsubr
          hstem
          59 39 155 38 vstem
          -97 callsubr
          endchar
        </CharString>
        <CharString name="O">
          32 callgsubr
          hstem
          118 callgsubr
          45 vstem
          -104 callgsubr
          endchar
        </CharString>
        <CharString name="OE">
          -42 callsubr
        </CharString>
        <CharString name="OE.dup">
          -42 callsubr
        </CharString>
        <CharString name="Oacute">
          158 callgsubr
          34 44 193 45 hintmask 11001100
          -104 callgsubr
          hintmask 00110000
          -23 456 -107 callgsubr
        </CharString>
        <CharString name="Obreve">
          32 callgsubr
          52 42 54 91 callgsubr
          hintmask 11001100
          -104 callgsubr
          hintmask 00110000
          24 435 -100 callgsubr
          endchar
        </CharString>
        <CharString name="Ocaron">
          32 callgsubr
          123 91 callgsubr
          hintmask 11011000
          -104 callgsubr
          hintmask 00110000
          1 415 rmoveto
          -98 callgsubr
        </CharString>
        <CharString name="Ocircumflex">
          109 callgsubr
          73 callsubr
          hintmask 11011000
          -104 callgsubr
          hintmask 00110000
          1 369 -105 callsubr
          endchar
        </CharString>
        <CharString name="Ocircumflexacute">
          109 callgsubr
          219 91 callgsubr
          hintmask 11001100
          -104 callgsubr
          hintmask 00111000
          1 369 -88 callsubr
        </CharString>
        <CharString name="Ocircumflexdotbelow">
          131 callsubr
          64 -21 hstemhm
          34 44 66 62 65 45 hintmask 01111010
          -104 callgsubr
          1 369 -105 callsubr
          hintmask 10000100
          -66 -853 rmoveto
          106 callgsubr
        </CharString>
        <CharString name="Ocircumflexgrave">
          109 callgsubr
          73 callsubr
          hintmask 11011000
          -104 callgsubr
          hintmask 00110000
          1 369 -87 callgsubr
        </CharString>
        <CharString name="Ocircumflexhookabove">
          32 callgsubr
          46 33 -15 -21 267 33 hstemhm
          34 44 97 36 8 35 -17 35 -33 36 -4 45 -41 34 hintmask 1100011000100000
          -104 callgsubr
          hintmask 0010010000000000
          1 369 rmoveto
          5 -1 10 -8 4 vhcurveto
          -74 40 -11 6 -6 0 -11 -6 rlinecurve
          -74 -40 rlineto
          -8 -4 -1 -10 -5 vvcurveto
          hintmask 0001000000000000
          -8 4 -9 11 vhcurveto
          hintmask 0010001001000000
          5 4 -1 4 9 hvcurveto
          64 29 64 -29 rlineto
          hintmask 0001101010010000
          -59 callsubr
          hintmask 0000000100000000
          -44 callgsubr
          hintmask 0000000010000000
          64 callgsubr
          vhcurveto
          hintmask 0000000100010000
          -17 callgsubr
        </CharString>
        <CharString name="Ocircumflextilde">
          -12 40 555 40 64 107 callsubr
          34 44 193 45 hintmask 1100000110000000
          -104 callgsubr
          hintmask 0011001100000000
          1 369 -105 callsubr
          23 184 -47 callsubr
        </CharString>
        <CharString name="Odblgrave">
          32 callgsubr
          74 -21 121 91 callgsubr
          hintmask 11001100
          -104 callgsubr
          hintmask 00110000
          -112 385 rmoveto
          -102 callsubr
          133 hmoveto
          -102 callsubr
          endchar
        </CharString>
        <CharString name="Odieresis">
          32 callgsubr
          42 64 hstemhm
          34 44 8 56 67 56 6 45 hintmask 11011010
          -104 callgsubr
          hintmask 00101100
          -129 383 -73 callgsubr
        </CharString>
        <CharString name="Odotbelow">
          131 callsubr
          hstemhm
          34 44 66 62 65 45 hintmask 01110100
          -104 callgsubr
          hintmask 10001000
          -65 -484 rmoveto
          106 callgsubr
        </CharString>
        <CharString name="Ograve">
          158 callgsubr
          34 44 193 45 hintmask 11001100
          -104 callgsubr
          hintmask 00110000
          -24 388 -100 callsubr
        </CharString>
        <CharString name="Ohookabove">
          32 callgsubr
          75 94 callgsubr
          34 44 30 62 callsubr
          29 45 hintmask 1100100010000000
          -104 callgsubr
          hintmask 0011011100000000
          -29 510 -101 callgsubr
        </CharString>
        <CharString name="Ohorn">
          32 callgsubr
          81 -20 112 callgsubr
          44 -31 44 hintmask 00100100
          -19 callgsubr
          hintmask 11011000
          -60 callgsubr
          hintmask 11010100
          -58 callsubr
          hintmask 00001000
          116 callsubr
          endchar
        </CharString>
        <CharString name="Ohornacute">
          32 callgsubr
          73 -21 29 -20 110 -20 112 callgsubr
          44 -31 44 hintmask 00010001
          -19 callgsubr
          hintmask 11000110
          -60 callgsubr
          hintmask 11000101
          -58 callsubr
          hintmask 00000010
          116 callsubr
          hintmask 00101000
          -42 452 -107 callgsubr
        </CharString>
        <CharString name="Ohorndotbelow">
          131 callsubr
          81 -20 hstemhm
          34 44 66 62 65 44 -31 44 hintmask 00010001
          -19 callgsubr
          hintmask 01101010
          -60 callgsubr
          hintmask 01101001
          -58 callsubr
          hintmask 00000010
          116 callsubr
          hintmask 10000100
          -65 -488 rmoveto
          106 callgsubr
        </CharString>
        <CharString name="Ohorngrave">
          32 callgsubr
          73 -21 29 -20 110 -20 112 callgsubr
          44 -31 44 hintmask 00010001
          -19 callgsubr
          hintmask 11000110
          -60 callgsubr
          hintmask 11000101
          -58 callsubr
          hintmask 00000010
          116 callsubr
          hintmask 00101000
          -43 384 -100 callsubr
        </CharString>
        <CharString name="Ohornhookabove">
          32 callgsubr
          75 -21 27 -20 180 33 hstemhm
          34 44 30 62 callsubr
          29 44 -31 44 hintmask 0001000000100000
          -19 callgsubr
          hintmask 1100010001000000
          -60 callgsubr
          hintmask 1100010000100000
          -58 callsubr
          hintmask 0000000001000000
          116 callsubr
          hintmask 0010101110000000
          -29 506 -101 callgsubr
        </CharString>
        <CharString name="Ohorntilde">
          113 callsubr
          44 -31 44 hintmask 0000000010000000
          -19 callgsubr
          hintmask 1100001100000000
          -60 callgsubr
          hintmask 1100001010000000
          -58 callsubr
          hintmask 0000000100000000
          116 callsubr
          hintmask 0010010000000000
          4 428 -86 callsubr
          hintmask 0000100000000000
          -41 callgsubr
          hintmask 0001000000000000
          51 callsubr
          hintmask 0010010000000000
          -95 callsubr
          hintmask 0001000000000000
          -38 callgsubr
          hintmask 0000100000000000
          -29 callsubr
        </CharString>
        <CharString name="Ohungarumlaut">
          32 callgsubr
          74 -21 121 91 callgsubr
          hintmask 11001100
          -104 callgsubr
          hintmask 00110000
          22 461 rmoveto
          -88 callgsubr
          -133 hmoveto
          -88 callgsubr
          endchar
        </CharString>
        <CharString name="Omacron">
          32 callgsubr
          62 41 73 callsubr
          hintmask 11011000
          -104 callgsubr
          hintmask 00100000
          34 391 -89 callgsubr
        </CharString>
        <CharString name="Omega">
          -28 callsubr
        </CharString>
        <CharString name="Omicron">
          32 callgsubr
          hstem
          118 callgsubr
          45 vstem
          -104 callgsubr
          endchar
        </CharString>
        <CharString name="Oogonek">
          -210 37 161 51 callgsubr
          hstem
          34 44 37 40 116 45 vstem
          -18 callgsubr
          endchar
        </CharString>
        <CharString name="Oogonekacute">
          -210 37 161 170 callgsubr
          34 44 37 40 116 45 hintmask 11100111
          -18 callgsubr
          hintmask 00011000
          -23 456 -107 callgsubr
        </CharString>
        <CharString name="Orogate">
          118 callgsubr
          45 vstem
          36 callsubr
          145 -4 79 -19 43 vhcurveto
          -17 39 -30 10 -51 2 rrcurveto
          126 172 callgsubr
          -126 vlineto
          -51 -2 -30 -10 -18 -39 rrcurveto
          -19 -43 -3 -79 -144 vvcurveto
          -145 3 -79 19 -43 vhcurveto
          18 -39 30 -10 51 -2 rrcurveto
          -126 171 callgsubr
          126 vlineto
          51 2 30 10 17 39 rrcurveto
          19 43 4 79 144 vvcurveto
          -45 9 rmoveto
          -67 0 -83 -8 -58 vhcurveto
          -53 -7 -16 -25 -65 hhcurveto
          -64 -16 25 48 -7 hvcurveto
          -10 54 0 98 61 vvcurveto
          70 0 77 8 51 vhcurveto
          57 10 21 14 58 hhcurveto
          55 23 -12 -55 10 hvcurveto
          8 -51 0 -85 -66 vvcurveto
          endchar
        </CharString>
        <CharString name="Oslash">
          -66 -21 75 51 callgsubr
          75 -20 hstem
          34 38 206 38 vstem
          -64 callgsubr
          endchar
        </CharString>
        <CharString name="Oslash.dup">
          -66 -21 75 51 callgsubr
          75 -20 hstem
          34 38 206 38 vstem
          -64 callgsubr
          endchar
        </CharString>
        <CharString name="Oslashacute">
          -66 -21 75 51 callgsubr
          73 -21 23 -20 116 -20 hstemhm
          34 38 206 38 hintmask 11101011
          -64 callgsubr
          hintmask 00010100
          -30 464 -107 callgsubr
        </CharString>
        <CharString name="Otilde">
          113 callsubr
          45 hintmask 11000011
          -104 callgsubr
          hintmask 00100100
          23 432 -86 callsubr
          hintmask 00001000
          -41 callgsubr
          hintmask 00010000
          51 callsubr
          hintmask 00100100
          -95 callsubr
          hintmask 00010000
          -38 callgsubr
          hintmask 00001000
          -29 callsubr
        </CharString>
        <CharString name="P">
          0 callsubr
        </CharString>
        <CharString name="Phi">
          0 40 117 40 217 40 117 40 hstem
          23 45 85 44 85 45 cntrmask 00001110
          327 305 rmoveto
          70 -51 66 -79 13 vhcurveto
          117 28 121 callgsubr
          -99 hlineto
          -9 -19 -49 callgsubr
          27 -117 hlineto
          -80 -12 -50 -68 -68 vvcurveto
          -71 52 -66 78 -12 vhcurveto
          -117 -27 vlineto
          -9 -19 -49 callgsubr
          99 hlineto
          23 callsubr
          -28 117 hlineto
          81 13 49 69 66 vvcurveto
          -174 -108 rmoveto
          -48 9 -37 46 53 vvcurveto
          58 40 42 45 9 vhcurveto
          129 -108 rmoveto
          -59 -42 -41 -43 -9 vhcurveto
          217 vlineto
          46 -9 39 -44 -55 vvcurveto
          endchar
        </CharString>
        <CharString name="Pi">
          -33 callgsubr
          hstem
          206 81 callgsubr
          cntrmask 00111000
          338 49 callgsubr
          -16 531 16 callsubr
          -271 -55 callgsubr
          -27 callgsubr
          531 150 -531 -16 hlineto
          15 callsubr
          endchar
        </CharString>
        <CharString name="Psi">
          -33 callgsubr
          hstem
          50 44 59 44 58 45 vstem
          329 460 rmoveto
          20 -17 0 -7 -46 -4 -76 -33 -51 -1 -96 -57 -24 vhcurveto
          371 23 vlineto
          5 callsubr
          -90 -107 callsubr
          23 -371 hlineto
          -59 24 0 104 45 vvcurveto
          35 -5 72 -45 -16 -7 -9 -11 -11 6 -5 5 -2 vhcurveto
          18 -6 0 -40 -35 vvcurveto
          -83 24 -99 79 -21 vhcurveto
          -118 -23 vlineto
          -106 callgsubr
          90 hlineto
          5 callsubr
          -23 118 hlineto
          72 18 30 84 1 110 rrcurveto
          20 0 46 17 5 vhcurveto
          5 3 7 4 12 vvcurveto
          endchar
        </CharString>
        <CharString name="Q">
          -122 -21 131 51 callgsubr
          hstem
          34 44 83 45 65 45 vstem
          45 callsubr
          -293 17 -25 124 10 22 0 1 9 vhcurveto
          40 -116 rlineto
          -16 7 5 0 16 hhcurveto
          10 13 0 9 hvcurveto
          -20 52 -29 82 39 24 9 40 6 73 rlinecurve
          4 48 0 83 37 vvcurveto
          -45 1 rmoveto
          -228 -13 -14 -17 -18 vhcurveto
          -35 97 rlineto
          14 -5 -2 0 -14 hhcurveto
          -5 hlineto
          -12 -12 0 -14 5 hvcurveto
          42 -115 rlineto
          -34 hlineto
          -68 -9 36 48 -7 67 callsubr
          endchar
        </CharString>
        <CharString name="R">
          86 callsubr
          70 callsubr
          79 33 callgsubr
          hintmask 1000000001100000
          -22 callsubr
          hintmask 0000000100000000
          -19 0 50 64 hvcurveto
          hintmask 0000001000000000
          3 callsubr
          hintmask 0101100010000000
          -67 callsubr
          hintmask 0110010100000000
          -56 callsubr
          hintmask 1011010001100000
          -57 callsubr
          endchar
        </CharString>
        <CharString name="Racute">
          86 callsubr
          85 -21 119 -20 70 callsubr
          79 33 callgsubr
          hintmask 1000000000011000
          -12 callsubr
          hintmask 0101001000100000
          -67 callsubr
          hintmask 0110000101000000
          -56 callsubr
          hintmask 1011000100011000
          -57 callsubr
          hintmask 0000110000000000
          -16 322 -107 callgsubr
        </CharString>
        <CharString name="Rcaron">
          86 callsubr
          135 -20 70 callsubr
          79 33 callgsubr
          hintmask 1000000000110000
          -22 callsubr
          hintmask 0000000010000000
          -19 0 50 64 hvcurveto
          hintmask 0000000100000000
          3 callsubr
          hintmask 0101010001000000
          -67 callsubr
          hintmask 0110001010000000
          -56 callsubr
          hintmask 1011001000110000
          -57 callsubr
          hintmask 0000100100000000
          8 281 rmoveto
          -98 callgsubr
        </CharString>
        <CharString name="Rcedilla">
          -32 callsubr
          hintmask 0110110100001100
          -57 callsubr
          -48 -568 rmoveto
          37 -20 26 -20 vhcurveto
          hintmask 1100000010000000
          18 callgsubr
        </CharString>
        <CharString name="Rcommaaccent">
          -32 callsubr
          hintmask 0010110100001100
          -57 callsubr
          hintmask 1100000010000000
          -48 -568 -98 callsubr
        </CharString>
        <CharString name="Rdblgrave">
          86 callsubr
          86 -21 121 -20 70 callsubr
          79 33 callgsubr
          hintmask 1000000000011000
          -12 callsubr
          hintmask 0101001000100000
          -67 callsubr
          hintmask 0110000101000000
          -56 callsubr
          hintmask 1011000100011000
          -57 callsubr
          hintmask 0000110000000000
          -124 251 rmoveto
          -102 callsubr
          133 hmoveto
          -102 callsubr
          endchar
        </CharString>
        <CharString name="Rdotaccent">
          86 callsubr
          66 74 70 callsubr
          -16 62 33 33 callgsubr
          hintmask 1000000000011000
          -12 callsubr
          hintmask 0101010000100000
          -67 callsubr
          hintmask 0110001001000000
          -56 callsubr
          hintmask 1011001000011000
          -57 callsubr
          hintmask 0000100100000000
          -58 266 -65 callsubr
        </CharString>
        <CharString name="Rdotbelow">
          -206 73 121 33 callsubr
          70 callsubr
          -16 62 33 33 callgsubr
          hintmask 0100000000011000
          -12 callsubr
          hintmask 0010110000100000
          -67 callsubr
          hintmask 0011001001000000
          -56 callsubr
          hintmask 0101101000011000
          -57 callsubr
          hintmask 1000000100000000
          -58 -618 rmoveto
          106 callgsubr
        </CharString>
        <CharString name="Rdotbelowmacron">
          -206 73 121 33 callsubr
          74 41 70 callsubr
          -16 62 33 33 callgsubr
          hintmask 0100000000001100
          -22 callsubr
          hintmask 0000000000100000
          -19 0 50 64 hvcurveto
          hintmask 0000000001000000
          3 callsubr
          hintmask 0010101000010000
          -67 callsubr
          hintmask 0011000100100000
          -56 callsubr
          hintmask 1101100100001100
          -57 callsubr
          -58 -618 137 callsubr
          hintmask 1000000010000000
          140 callgsubr
          hintmask 0000010000000000
          115 875 -89 callgsubr
        </CharString>
        <CharString name="Rho">
          0 callsubr
        </CharString>
        <CharString name="S">
          -12 132 callgsubr
          202 43 hintmask 11101000
          -93 callgsubr
          hintmask 10011000
          10 callgsubr
          endchar
        </CharString>
        <CharString name="Sacute">
          158 callgsubr
          31 42 -42 43 202 43 hintmask 11001010
          -93 callgsubr
          hintmask 10000110
          10 callgsubr
          hintmask 00110000
          -71 611 -107 callgsubr
        </CharString>
        <CharString name="Scaron">
          32 callgsubr
          123 -20 163 callsubr
          202 43 hintmask 11010100
          -93 callgsubr
          hintmask 10001100
          10 callgsubr
          hintmask 00100000
          -47 570 rmoveto
          -98 callgsubr
        </CharString>
        <CharString name="Scedilla">
          -226 40 174 132 callgsubr
          24 42 94 42 0 43 hintmask 01110010
          -93 callgsubr
          hintmask 10001110
          14 2 8 43 8 hvcurveto
          29 -33 35 -12 28 -4 rrcurveto
          -41 vlineto
          -15 4 -14 17 -2 vhcurveto
          29 -2 18 -22 -28 vvcurveto
          -44 -72 -8 -22 vhcurveto
          -14 -5 callgsubr
          18 53 90 0 92 40 -22 36 -45 13 hvcurveto
          35 vlineto
          hintmask 00000001
          64 14 44 75 80 vvcurveto
          endchar
        </CharString>
        <CharString name="Scircumflex">
          109 callgsubr
          163 callsubr
          202 43 hintmask 11010100
          -93 callgsubr
          hintmask 10001100
          10 callgsubr
          hintmask 00100000
          -47 524 -105 callsubr
          endchar
        </CharString>
        <CharString name="Sdotbelow">
          -206 73 121 132 callgsubr
          70 62 70 43 hintmask 01110010
          -93 callgsubr
          hintmask 01001010
          10 callgsubr
          hintmask 10000100
          -113 -329 rmoveto
          106 callgsubr
        </CharString>
        <CharString name="Sigma">
          0 42 529 40 hstem
          134 45 103 45 vstem
          327 33 rmoveto
          70 vlineto
          15 -4 17 -18 -19 -4 -16 -16 vhcurveto
          -61 -205 vlineto
          98 251 2 6 1 3 1 4 rlinecurve
          -103 265 rlineto
          206 -61 hlineto
          -15 4 -17 18 26 callsubr
          68 40 callgsubr
          -248 hlineto
          -8 -20 0 -20 -4 2 -2 3 -8 hvcurveto
          106 -272 -105 -273 rlineto
          -4 -9 -2 0 -4 vvcurveto
          -19 21 0 7 vhcurveto
          248 hlineto
          19 9 5 28 hvcurveto
          endchar
        </CharString>
        <CharString name="T">
          -33 callgsubr
          hstem
          137 callgsubr
          vstem
          -83 callsubr
          endchar
        </CharString>
        <CharString name="T_uni0303">
          0 40 531 30 callsubr
          137 callgsubr
          hintmask 1100001110000000
          -83 callsubr
          hintmask 0010010000000000
          -42 236 -86 callsubr
          hintmask 0000100000000000
          -41 callgsubr
          hintmask 0001000000000000
          51 callsubr
          hintmask 0010010000000000
          -95 callsubr
          hintmask 0001000000000000
          -38 callgsubr
          hintmask 0000100000000000
          -29 callsubr
        </CharString>
        <CharString name="T_uni0308">
          136 callsubr
          64 hstemhm
          13 45 28 56 11 44 12 56 27 44 hintmask 11010101
          -83 callsubr
          hintmask 00101010
          -194 187 -73 callgsubr
        </CharString>
        <CharString name="Tau">
          -33 callgsubr
          hstem
          137 callgsubr
          vstem
          -83 callsubr
          endchar
        </CharString>
        <CharString name="Tcaron">
          102 callgsubr
          137 callgsubr
          hintmask 11011100
          -83 callsubr
          hintmask 00100000
          -64 219 rmoveto
          -98 callgsubr
        </CharString>
        <CharString name="Tcedilla">
          -217 41 176 -32 callgsubr
          hstemhm
          13 45 95 44 -44 45 23 44 27 44 hintmask 11111011
          336 510 rmoveto
          31 callgsubr
          -268 hlineto
          -19 -9 -4 -29 hvcurveto
          -68 vlineto
          -15 4 -17 18 26 callsubr
          61 95 -531 -34 vlineto
          -9 -19 -49 callgsubr
          34 hlineto
          -3 0 -2 -3 vvcurveto
          21 callsubr
          hvcurveto
          hintmask 01000100
          39 -22 36 -45 13 vhcurveto
          15 0 12 -2 9 vhcurveto
          36 hlineto
          23 callsubr
          hintmask 01101001
          -35 531 95 -61 hlineto
          24 callgsubr
          endchar
        </CharString>
        <CharString name="Tdotbelow">
          23 callgsubr
          hstemhm
          13 45 86 62 -53 44 95 44 hintmask 01110110
          -83 callsubr
          hintmask 10001000
          -130 -680 rmoveto
          106 callgsubr
        </CharString>
        <CharString name="Theta">
          -12 40 254 47 254 40 hstem
          34 44 28 44 49 45 27 45 cntrmask 11100000
          45 callsubr
          -293 17 -25 124 124 17 25 292 vhcurveto
          -45 1 rmoveto
          -65 0 -77 -7 -53 vhcurveto
          -60 -8 -15 -23 -66 hhcurveto
          -67 -15 24 60 -8 67 callsubr
          -27 -24 rmoveto
          47 vlineto
          14 -4 18 -19 -17 -5 -16 -16 vhcurveto
          -49 hlineto
          16 -5 16 -17 -19 -3 -18 -14 vhcurveto
          -47 vlineto
          -14 3 -18 19 17 5 16 16 vhcurveto
          49 hlineto
          -16 5 -16 17 19 4 18 14 vhcurveto
          endchar
        </CharString>
        <CharString name="Thorn">
          0 40 88 40 275 40 88 40 70 callsubr
          129 44 hintmask 00110100
          317 305 rmoveto
          92 -52 86 -78 vhcurveto
          -87 88 16 -77 callsubr
          -77 -82 callsubr
          hintmask 10011000
          -52 callgsubr
          hintmask 11100110
          -27 callgsubr
          88 87 hlineto
          79 51 88 89 hvcurveto
          -44 1 rmoveto
          -62 -29 -76 -69 vhcurveto
          -75 275 75 hlineto
          71 27 -79 -58 hvcurveto
          endchar
        </CharString>
        <CharString name="Tlinebelow">
          -189 41 148 -32 callgsubr
          hstemhm
          137 callgsubr
          hintmask 01111100
          -83 callsubr
          hintmask 10000000
          -31 -679 -89 callgsubr
        </CharString>
        <CharString name="U">
          55 callsubr
          hstem
          48 44 165 45 vstem
          -103 callsubr
          endchar
        </CharString>
        <CharString name="U_uni032F">
          -196 -21 54 42 109 81 callsubr
          72 callsubr
          hintmask 00111100
          -103 callsubr
          hintmask 11000000
          -55 -786 -37 callgsubr
        </CharString>
        <CharString name="Uacute">
          55 callsubr
          85 -21 119 110 callsubr
          hintmask 11001100
          -103 callsubr
          hintmask 00110000
          -102 179 -107 callgsubr
        </CharString>
        <CharString name="Ubreve">
          55 callsubr
          64 42 54 110 callsubr
          hintmask 11001100
          -103 callsubr
          hintmask 00110000
          -55 158 -100 callgsubr
          endchar
        </CharString>
        <CharString name="Ucaron">
          55 callsubr
          135 110 callsubr
          hintmask 11011000
          -103 callsubr
          hintmask 00101000
          -78 138 rmoveto
          -98 callgsubr
        </CharString>
        <CharString name="Ucircumflex">
          55 callsubr
          76 -21 72 callsubr
          hintmask 11011000
          -103 callsubr
          hintmask 00101000
          -78 92 -105 callsubr
          endchar
        </CharString>
        <CharString name="Udblgrave">
          55 callsubr
          86 -21 121 110 callsubr
          hintmask 11001100
          -103 callsubr
          hintmask 00110000
          -191 108 rmoveto
          -102 callsubr
          133 hmoveto
          -102 callsubr
          endchar
        </CharString>
        <CharString name="Udieresis">
          134 callgsubr
          132 callsubr
          hintmask 11010010
          -103 callsubr
          hintmask 00101100
          -11 callsubr
          endchar
        </CharString>
        <CharString name="Udieresisacute">
          -12 40 543 40 54 64 84 -21 119 173 callsubr
          hintmask 1100010010000000
          -103 callsubr
          hintmask 0011101100000000
          -11 callsubr
          -17 190 -107 callgsubr
        </CharString>
        <CharString name="Udieresiscaron">
          134 callgsubr
          134 173 callsubr
          hintmask 11001001
          -103 callsubr
          hintmask 00100110
          -11 callsubr
          7 149 rmoveto
          hintmask 00010001
          -98 callgsubr
        </CharString>
        <CharString name="Udieresisgrave">
          -12 40 543 40 54 64 84 -21 119 173 callsubr
          hintmask 1100010010000000
          -103 callsubr
          hintmask 0011101100000000
          -11 callsubr
          -18 122 -100 callsubr
        </CharString>
        <CharString name="Udotbelow">
          -206 73 121 81 callsubr
          hstemhm
          48 44 52 62 51 45 hintmask 01110100
          -103 callsubr
          hintmask 10001000
          -144 -761 rmoveto
          106 callgsubr
        </CharString>
        <CharString name="Ugrave">
          55 callsubr
          85 -21 119 110 callsubr
          hintmask 11001100
          -103 callsubr
          hintmask 00110000
          -103 111 -100 callsubr
        </CharString>
        <CharString name="Uhookabove">
          55 callsubr
          87 94 callgsubr
          48 44 16 62 callsubr
          15 45 hintmask 1100100010000000
          -103 callsubr
          hintmask 0011011100000000
          -108 233 -101 callgsubr
        </CharString>
        <CharString name="Uhorn">
          55 callsubr
          93 -20 hstem
          47 44 166 44 vstem
          -90 callsubr
          endchar
        </CharString>
        <CharString name="Uhornacute">
          55 callsubr
          85 -21 29 -20 110 -20 hstemhm
          47 44 166 44 hintmask 11010110
          -90 callsubr
          hintmask 00101000
          -121 118 -107 callgsubr
        </CharString>
        <CharString name="Uhorndotbelow">
          -206 73 121 81 callsubr
          93 -20 hstemhm
          47 44 53 62 51 44 hintmask 01111010
          -90 callsubr
          hintmask 10000100
          -144 -822 rmoveto
          106 callgsubr
        </CharString>
        <CharString name="Uhorngrave">
          55 callsubr
          85 -21 29 -20 110 -20 hstemhm
          47 44 166 44 hintmask 11010110
          -90 callsubr
          hintmask 00101000
          -122 50 -100 callsubr
        </CharString>
        <CharString name="Uhornhookabove">
          55 callsubr
          87 -21 27 -20 180 33 hstemhm
          47 44 17 62 callsubr
          15 44 hintmask 1101010001000000
          -90 callsubr
          hintmask 0010101110000000
          -108 172 -101 callgsubr
        </CharString>
        <CharString name="Uhorntilde">
          -12 40 543 30 callsubr
          47 44 166 44 hintmask 11000011
          -90 callsubr
          hintmask 00100100
          -75 94 -86 callsubr
          hintmask 00001000
          -41 callgsubr
          hintmask 00010000
          51 callsubr
          hintmask 00100100
          -95 callsubr
          hintmask 00010000
          -38 callgsubr
          hintmask 00001000
          -29 callsubr
        </CharString>
        <CharString name="Uhungarumlaut">
          55 callsubr
          86 -21 121 110 callsubr
          hintmask 11001100
          -103 callsubr
          hintmask 00110000
          -57 184 rmoveto
          -88 callgsubr
          -133 hmoveto
          -88 callgsubr
          endchar
        </CharString>
        <CharString name="Umacron">
          55 callsubr
          74 41 72 callsubr
          hintmask 11011000
          -103 callsubr
          hintmask 00100000
          -45 114 -89 callgsubr
        </CharString>
        <CharString name="Uogonek">
          -210 37 744 40 hstemhm
          48 44 27 41 28 41 -19 45 2 45 -44 44 hintmask 01110110
          350 -40 callsubr
          -84 -69 callsubr
          -365 hlineto
          -118 -44 -60 -38 -39 -44 61 117 vhcurveto
          365 20 -38 callsubr
          -37 callsubr
          20 -371 hlineto
          -109 43 -83 69 -19 vhcurveto
          -29 -42 -12 -34 -34 vvcurveto
          hintmask 10001001
          122 callgsubr
          hintmask 00000100
          3 4 -1 9 -5 5 rrcurveto
          hintmask 11011001
          22 callgsubr
          -15 -16 21 29 45 17 43 22 27 hvcurveto
          59 16 44 83 109 vvcurveto
          371 20 vlineto
          -23 callgsubr
        </CharString>
        <CharString name="Upsilon">
          0 40 434 31 87 31 hstem
          21 45 87 44 87 45 cntrmask 00011100
          329 499 rmoveto
          54 -30 70 -48 -41 -27 -46 -103 -7 vhcurveto
          -1 hlineto
          106 -10 -25 43 -41 hhcurveto
          -48 -30 -70 -54 -20 12 -3 10 5 18 0 26 24 2 66 32 32 10 -60 -27 3 hvcurveto
          7 -48 1 -49 -49 vvcurveto
          -319 -23 vlineto
          -106 callgsubr
          90 hlineto
          5 callsubr
          -23 319 hlineto
          56 0 177 53 34 0 -76 -14 -16 5 -10 18 9 13 2 21 vhcurveto
          endchar
        </CharString>
        <CharString name="Uring">
          55 callsubr
          12 22 80 22 hstemhm
          48 44 28 27 56 27 27 45 hintmask 11001001
          -103 callsubr
          hintmask 00110110
          -147 94 -50 callgsubr
        </CharString>
        <CharString name="Utilde">
          -12 40 543 30 callsubr
          48 44 165 45 hintmask 11000011
          -103 callsubr
          hintmask 00100100
          -56 155 -86 callsubr
          hintmask 00001000
          -41 callgsubr
          hintmask 00010000
          51 callsubr
          hintmask 00100100
          -95 callsubr
          hintmask 00010000
          -38 callgsubr
          hintmask 00001000
          -29 callsubr
        </CharString>
        <CharString name="V">
          12 -21 580 40 hstem
          342 591 rmoveto
          163 callgsubr
          -65 hlineto
          -9 -20 0 -20 -20 19 0 22 hvcurveto
          -86 -521 -86 521 rlineto
          21 19 -72 callgsubr
          -8 hvcurveto
          -66 hlineto
          43 callsubr
          -20 18 0 19 hvcurveto
          93 -544 rlineto
          -36 7 14 0 16 hhcurveto
          15 14 0 34 6 hvcurveto
          95 546 rlineto
          19 18 127 callgsubr
        </CharString>
        <CharString name="W">
          109 callsubr
          hstem
          -80 callgsubr
          endchar
        </CharString>
        <CharString name="Wacute">
          109 callsubr
          85 -10 callgsubr
          hintmask 11100000
          -80 callgsubr
          hintmask 00011000
          -99 179 -107 callgsubr
        </CharString>
        <CharString name="Wcircumflex">
          109 callsubr
          76 -21 hstemhm
          hintmask 11100000
          -80 callgsubr
          hintmask 00010000
          -75 92 -105 callsubr
          endchar
        </CharString>
        <CharString name="Wdieresis">
          109 callsubr
          54 64 hstemhm
          86 56 67 56 hintmask 11100000
          -80 callgsubr
          hintmask 00011100
          -205 52 callgsubr
        </CharString>
        <CharString name="Wgrave">
          109 callsubr
          85 -10 callgsubr
          hintmask 11100000
          -80 callgsubr
          hintmask 00011000
          -100 111 -100 callsubr
        </CharString>
        <CharString name="X">
          -18 callsubr
        </CharString>
        <CharString name="Xi">
          0 38 261 38 236 38 hstemhm
          17 45 -42 45 -17 45 -23 45 120 45 -23 45 -17 44 -41 44 hintmask 0000000001000000
          329 564 rmoveto
          14 vlineto
          hintmask 0010010010000000
          52 callsubr
          -254 hlineto
          hintmask 0010100001000000
          -19 -9 -4 -29 hvcurveto
          -14 vlineto
          -16 4 -16 19 18 4 18 23 vhcurveto
          220 hlineto
          -23 3 -18 19 19 146 callsubr
          3 -531 rmoveto
          hintmask 1001000100100000
          19 vlineto
          15 -3 18 -19 -19 -3 -16 -31 vhcurveto
          -226 hlineto
          31 -3 16 -20 -18 -4 -18 -15 vhcurveto
          -19 vlineto
          -29 9 -4 20 vhcurveto
          259 hlineto
          19 -6 callgsubr
          -52 264 rmoveto
          43 vlineto
          hintmask 0000000010000000
          15 -4 18 -19 vhcurveto
          hintmask 0100001100000000
          -18 -4 -19 -17 hvcurveto
          -120 hlineto
          hintmask 0000010000000000
          17 -4 19 -18 vhcurveto
          hintmask 0000001000000000
          -19 -4 -18 -15 hvcurveto
          -43 vlineto
          hintmask 0000010000000000
          -16 4 -17 19 vhcurveto
          hintmask 0100001100000000
          18 4 19 16 hvcurveto
          120 hlineto
          hintmask 0000000010000000
          -16 4 -19 18 vhcurveto
          hintmask 0000000100000000
          19 4 17 16 hvcurveto
          endchar
        </CharString>
        <CharString name="Y">
          -33 callgsubr
          hstem
          93 44 16 44 16 44 cntrmask 00111000
          -75 callgsubr
          -8 -20 -49 callgsubr
          76 hlineto
          -29 callgsubr
          -16 210 hlineto
          29 callsubr
          endchar
        </CharString>
        <CharString name="Yacute">
          -25 callgsubr
          -94 179 -107 callgsubr
        </CharString>
        <CharString name="Ycircumflex">
          -33 callgsubr
          76 -21 hstemhm
          93 44 -28 81 callgsubr
          -28 44 0 44 hintmask 1101010100000000
          -75 callgsubr
          hintmask 0000100000000000
          -8 -20 0 -20 hvcurveto
          hintmask 1001000100000000
          -20 19 0 9 vhcurveto
          76 hlineto
          hintmask 0000001000000000
          123 callsubr
          hintmask 1000010100000000
          55 callgsubr
          hintmask 0100000010000000
          29 callsubr
          hintmask 0011000100000000
          -70 92 -105 callsubr
          endchar
        </CharString>
        <CharString name="Ydieresis">
          136 callsubr
          64 hstemhm
          86 56 -49 44 -28 81 callgsubr
          -32 56 -52 44 0 44 hintmask 1100101001000000
          -75 callgsubr
          hintmask 0000010000000000
          -8 -20 0 -20 hvcurveto
          hintmask 1000100001000000
          54 callgsubr
          hintmask 1000001001000000
          55 callgsubr
          hintmask 0100000000100000
          29 callsubr
          hintmask 0011000010000000
          -200 52 callgsubr
        </CharString>
        <CharString name="Ydotbelow">
          23 callgsubr
          hstemhm
          93 44 -28 44 -9 62 -53 44 0 44 -28 44 0 44 hintmask 0111001010000000
          -75 callgsubr
          hintmask 0000100000000000
          -8 -20 0 -20 hvcurveto
          hintmask 0101000010000000
          54 callgsubr
          hintmask 0100001010000000
          55 callgsubr
          hintmask 0010000001000000
          29 callsubr
          hintmask 1000010000000000
          -136 -761 rmoveto
          106 callgsubr
        </CharString>
        <CharString name="Ygrave">
          -25 callgsubr
          -95 111 -100 callsubr
        </CharString>
        <CharString name="Yhookabove">
          -33 callgsubr
          87 94 callgsubr
          93 44 -29 36 -35 44 -1 35 -34 44 0 44 -33 34 -29 44 0 44 hintmask 1100100010010000
          -75 callgsubr
          hintmask 0000001000000000
          -8 -20 0 -20 hvcurveto
          hintmask 1000100000010000
          127 callsubr
          hintmask 1000000010010000
          55 callgsubr
          hintmask 0100000000001000
          29 callsubr
          hintmask 0011010100100000
          -100 233 -101 callgsubr
        </CharString>
        <CharString name="Ytilde">
          0 40 531 30 callsubr
          93 44 -28 81 callgsubr
          -28 44 0 44 hintmask 1100001010100000
          -75 callgsubr
          hintmask 0000000100000000
          -8 -20 0 -20 hvcurveto
          hintmask 1000001000100000
          127 callsubr
          hintmask 1000000010100000
          55 callgsubr
          hintmask 0100000000010000
          29 callsubr
          hintmask 0010010000000000
          -48 155 -86 callsubr
          hintmask 0000100000000000
          -41 callgsubr
          hintmask 0001000000000000
          51 callsubr
          hintmask 0010010000000000
          -95 callsubr
          hintmask 0001000000000000
          -38 callgsubr
          hintmask 0000100000000000
          -29 callsubr
        </CharString>
        <CharString name="Z">
          -33 callgsubr
          hstemhm
          36 44 192 44 -35 44 hintmask 10001000
          3 callgsubr
          hintmask 11110000
          -60 callsubr
          hintmask 00001000
          19 -6 callgsubr
          endchar
        </CharString>
        <CharString name="Zacute">
          48 callsubr
          36 44 192 44 -35 44 hintmask 10000010
          3 callgsubr
          hintmask 11001100
          -60 callsubr
          hintmask 00000010
          19 -6 callgsubr
          hintmask 00110000
          -77 737 -107 callgsubr
        </CharString>
        <CharString name="Zcaron">
          102 callgsubr
          36 44 192 44 -35 44 hintmask 10000100
          3 callgsubr
          hintmask 11011000
          -60 callsubr
          hintmask 00000100
          19 -6 callgsubr
          hintmask 00101000
          -53 696 rmoveto
          -98 callgsubr
        </CharString>
        <CharString name="Zdotaccent">
          -33 callgsubr
          66 74 hstemhm
          36 44 64 62 66 44 -35 44 hintmask 10000010
          3 callgsubr
          hintmask 11010100
          -60 callsubr
          hintmask 00000010
          19 -6 callgsubr
          hintmask 00101000
          -119 681 -65 callsubr
        </CharString>
        <CharString name="Zdotbelow">
          23 callgsubr
          hstemhm
          36 44 64 62 66 44 -35 44 hintmask 01000010
          3 callgsubr
          hintmask 01110100
          -60 callsubr
          hintmask 00000010
          19 -6 callgsubr
          hintmask 10001000
          -119 -203 rmoveto
          106 callgsubr
        </CharString>
        <CharString name="Zeta">
          -33 callgsubr
          hstemhm
          36 44 192 44 -35 44 hintmask 10001000
          3 callgsubr
          hintmask 11110000
          -60 callsubr
          hintmask 00001000
          19 -6 callgsubr
          endchar
        </CharString>
        <CharString name="a">
          17 callgsubr
          16 callgsubr
          hintmask 01101100
          -103 callgsubr
          hintmask 10010000
          -67 callgsubr
          hintmask 10010100
          -66 callsubr
          endchar
        </CharString>
        <CharString name="aacute">
          17 callgsubr
          90 -21 119 -84 callgsubr
          hintmask 00011001
          18 374 -107 callgsubr
        </CharString>
        <CharString name="abreve">
          17 callgsubr
          81 42 54 -84 callgsubr
          hintmask 00011000
          65 365 -71 callgsubr
          endchar
        </CharString>
        <CharString name="abreveacute">
          17 callgsubr
          81 42 32 42 6 42 71 78 callgsubr
          hintmask 0110000011000000
          -103 callgsubr
          hintmask 1000000100000000
          -69 callgsubr
          hintmask 0100000000000000
          -78 callsubr
          hintmask 1000000101000000
          -66 callsubr
          hintmask 0001111001000000
          65 365 -100 callgsubr
          -47 137 -107 callgsubr
        </CharString>
        <CharString name="abrevedotbelow">
          -206 73 127 34 callsubr
          81 42 54 -20 50 callsubr
          45 62 24 44 hintmask 0011000101000000
          -103 callgsubr
          hintmask 0100001000000000
          -69 callgsubr
          hintmask 0010000000000000
          -78 callsubr
          hintmask 0100111001000000
          -66 callsubr
          65 365 -71 callgsubr
          hintmask 1000000010000000
          -89 -760 rmoveto
          106 callgsubr
        </CharString>
        <CharString name="abrevegrave">
          17 callgsubr
          81 42 32 42 6 42 16 callgsubr
          hintmask 0110000110000000
          -103 callgsubr
          hintmask 1000001000000000
          -69 callgsubr
          hintmask 0100000000000000
          -78 callsubr
          hintmask 1000001010000000
          -66 callsubr
          hintmask 0001110010000000
          65 365 -100 callgsubr
          -47 69 rmoveto
          -15 -8 -12 -14 -4 -7 3 3 -4 vhcurveto
          -90 66 rlineto
          -8 6 -10 8 9 vvcurveto
          14 9 10 11 9 10 -6 -7 10 vhcurveto
          78 -58 rlineto
          7 -5 11 -9 -7 vvcurveto
          endchar
        </CharString>
        <CharString name="abrevehookabove">
          17 callgsubr
          81 42 241 33 50 callsubr
          -25 34 0 62 callsubr
          -22 35 -25 44 hintmask 0110001000001000
          -103 callgsubr
          hintmask 1000010000000000
          -69 callgsubr
          hintmask 0100000000000000
          -78 callsubr
          hintmask 1000010000001000
          -66 callsubr
          hintmask 0001100100010000
          65 365 -100 callgsubr
          -53 169 rmoveto
          47 -33 26 -39 -30 -32 -25 -47 -12 8 -7 10 vhcurveto
          hintmask 0000100011100000
          -9 callsubr
          hintmask 0000000000010000
          22 9 22 24 20 vhcurveto
          hintmask 0000000000100000
          11 11 11 16 21 vvcurveto
          endchar
        </CharString>
        <CharString name="abrevetilde">
          17 callgsubr
          81 42 94 129 callsubr
          hintmask 0110000001100000
          -103 callgsubr
          hintmask 1000000010000000
          -69 callgsubr
          hintmask 0100000000000000
          -78 callsubr
          hintmask 1000000010100000
          -66 callsubr
          hintmask 0001100100000000
          65 365 -100 callgsubr
          143 vmoveto
          -90 callgsubr
          hintmask 0000001000000000
          -41 callgsubr
          hintmask 0000010000000000
          51 callsubr
          hintmask 0000100100000000
          -95 callsubr
          hintmask 0000010000000000
          -38 callgsubr
          hintmask 0000001000000000
          -29 callsubr
        </CharString>
        <CharString name="acaron">
          17 callgsubr
          185 -20 -21 callgsubr
          45 375 -92 callsubr
        </CharString>
        <CharString name="acircumflex">
          17 callgsubr
          93 -21 -21 callgsubr
          45 302 -96 callsubr
          endchar
        </CharString>
        <CharString name="acircumflexacute">
          17 callgsubr
          93 -21 219 -84 callgsubr
          hintmask 00011001
          42 299 -88 callsubr
        </CharString>
        <CharString name="acircumflexdotbelow">
          -206 73 127 34 callsubr
          93 -21 50 callsubr
          45 62 24 44 hintmask 0011001010000000
          -103 callgsubr
          hintmask 0100010000000000
          -69 callgsubr
          hintmask 0010000000000000
          -78 callsubr
          hintmask 0100110010000000
          -66 callsubr
          45 302 -96 callsubr
          hintmask 1000000100000000
          -69 -697 rmoveto
          106 callgsubr
        </CharString>
        <CharString name="acircumflexgrave">
          17 callgsubr
          93 -21 16 callgsubr
          hintmask 01100110
          -103 callgsubr
          hintmask 10001000
          -67 callgsubr
          hintmask 10001010
          -66 callsubr
          hintmask 00010010
          42 299 -87 callgsubr
        </CharString>
        <CharString name="acircumflexhookabove">
          17 callgsubr
          75 33 -15 -21 267 33 50 callsubr
          76 36 8 35 -24 44 -37 35 -33 36 0 34 hintmask 0110000100100000
          -103 callgsubr
          hintmask 1000001000000000
          -69 callgsubr
          hintmask 0100000000000000
          -78 callsubr
          hintmask 1000001000100000
          -66 callsubr
          hintmask 0001000000000000
          42 299 -1 callsubr
          hintmask 0001000010001000
          5 4 -1 4 9 hvcurveto
          64 29 64 -29 rlineto
          hintmask 0000110010010100
          -59 callsubr
          hintmask 0000000001000000
          -44 callgsubr
          hintmask 0000000000010000
          64 callgsubr
          vhcurveto
          hintmask 0000000001000100
          -17 callgsubr
        </CharString>
        <CharString name="acircumflextilde">
          17 callgsubr
          93 -21 120 129 callsubr
          hintmask 0110000001100000
          -103 callgsubr
          hintmask 1000000010000000
          -69 callgsubr
          hintmask 0100000000000000
          -78 callsubr
          hintmask 1000000010100000
          -66 callsubr
          hintmask 0001100100000000
          42 299 -105 callsubr
          23 184 -86 callsubr
          hintmask 0000001000000000
          -41 callgsubr
          hintmask 0000010000000000
          51 callsubr
          hintmask 0000100100000000
          -95 callsubr
          hintmask 0000010000000000
          -38 callgsubr
          hintmask 0000001000000000
          -29 callsubr
        </CharString>
        <CharString name="acute">
          525 -7 callsubr
          hstem
          248 599 -107 callgsubr
        </CharString>
        <CharString name="acute.cap">
          515 -7 callsubr
          hstem
          248 589 -107 callgsubr
        </CharString>
        <CharString name="acute.dup">
          525 -7 callsubr
          hstem
          248 599 -107 callgsubr
        </CharString>
        <CharString name="acute.ts1">
          513 -7 callsubr
          hstem
          274 587 -107 callgsubr
        </CharString>
        <CharString name="adblgrave">
          17 callgsubr
          89 -21 121 -84 callgsubr
          hintmask 00011001
          -71 301 rmoveto
          -102 callsubr
          133 hmoveto
          -102 callsubr
          endchar
        </CharString>
        <CharString name="adieresis">
          17 callgsubr
          97 64 50 callsubr
          -4 56 49 56 -26 44 hintmask 0110010010000000
          -103 callgsubr
          hintmask 1000100000000000
          -69 callgsubr
          hintmask 0100000000000000
          -78 callsubr
          hintmask 1000100010000000
          -66 callsubr
          hintmask 0001001100000000
          -79 338 -51 callsubr
        </CharString>
        <CharString name="adotbelow">
          -206 73 127 34 callsubr
          50 callsubr
          45 62 24 44 hintmask 00110101
          -103 callgsubr
          hintmask 01001000
          -69 callgsubr
          hintmask 00100000
          -78 callsubr
          hintmask 01001001
          -66 callsubr
          hintmask 10000010
          -24 -395 rmoveto
          106 callgsubr
        </CharString>
        <CharString name="ae">
          195 37 -37 40 -37 37 hstem
          -62 callgsubr
          endchar
        </CharString>
        <CharString name="ae.dup">
          195 37 -37 40 -37 37 hstem
          -62 callgsubr
          endchar
        </CharString>
        <CharString name="aeacute">
          195 37 -37 40 -37 37 hstemhm
          -62 callgsubr
          hintmask 11100000
          92 404 -107 callgsubr
        </CharString>
        <CharString name="agrave">
          17 callgsubr
          90 -21 119 -84 callgsubr
          hintmask 00011000
          17 306 -100 callsubr
        </CharString>
        <CharString name="ahookabove">
          17 callgsubr
          40 -21 187 33 50 callsubr
          9 62 callsubr
          -12 44 hintmask 0110001000100000
          -103 callgsubr
          hintmask 1000010000000000
          -69 callgsubr
          hintmask 0100000000000000
          -78 callsubr
          hintmask 1000010000100000
          -66 callsubr
          hintmask 0001100111000000
          12 376 -101 callgsubr
        </CharString>
        <CharString name="amacron">
          17 callgsubr
          108 41 -21 callgsubr
          75 338 -89 callgsubr
        </CharString>
        <CharString name="ampersand">
          -12 40 31 40 286 40 158 40 hstem
          207 42 0 41 0 42 cntrmask 00001110
          332 405 -52 callsubr
          -61 143 callgsubr
          13 hvcurveto
          -30 -121 -19 -74 -17 -46 -37 92 -6 22 -12 44 rrcurveto
          38 65 36 61 66 vvcurveto
          59 -18 70 -45 -35 -37 -45 -92 -46 6 -57 16 -74 vhcurveto
          -46 -78 rlineto
          -13 -22 -14 -30 -51 vvcurveto
          -71 33 -69 50 39 30 39 32 17 vhcurveto
          -40 22 28 -31 31 hhcurveto
          43 21 65 46 24 -19 0 0 -3 -15 0 -29 -2 hvcurveto
          -31 -1 -6 -35 -19 hhcurveto
          -28 -29 68 13 0 26 73 16 61 hvcurveto
          36 142 rlineto
          19 hlineto
          8 20 0 20 hvcurveto
          -169 89 rmoveto
          -26 -3 -37 -44 -75 vhcurveto
          -12 65 0 64 0 vvcurveto
          64 15 34 19 27 -2 -89 0 vhcurveto
          1 -395 rmoveto
          -39 -19 -22 -32 -24 hhcurveto
          -35 -8 72 32 56 13 20 34 52 hvcurveto
          25 -81 29 -63 7 -17 rrcurveto
          endchar
        </CharString>
        <CharString name="anglearc">
          109 -21 436 -20 hstem
          235 44 vstem
          329 111 rmoveto
          10 -7 6 -5 4 vhcurveto
          -58 42 rlineto
          14 54 6 39 40 vvcurveto
          40 -6 39 -14 54 vhcurveto
          58 42 rlineto
          5 4 7 6 10 vvcurveto
          15 -12 8 -10 -4 -3 -1 -2 -3 vhcurveto
          -53 -40 -15 31 rlineto
          7 -4 -7 5 -7 hhcurveto
          -10 -12 -8 -15 -3 3 -4 2 -4 hvcurveto
          16 -33 -177 -131 rlineto
          -6 -4 -6 -6 -10 vvcurveto
          -10 6 -6 6 -4 vhcurveto
          177 -131 -16 -33 rlineto
          -2 -4 -3 -4 -3 vvcurveto
          -15 12 -8 10 7 7 5 7 4 vhcurveto
          15 31 53 -40 rlineto
          -2 3 3 -1 4 hhcurveto
          10 12 8 15 hvcurveto
          -94 195 rmoveto
          -36 -4 -37 -8 -33 vhcurveto
          -144 106 144 106 rlineto
          8 -33 4 -37 -36 vvcurveto
          endchar
        </CharString>
        <CharString name="angleleft">
          -64 -21 783 -20 hstem
          303 -60 rmoveto
          -158 367 rlineto
          7 158 360 0 vhcurveto
          15 -3 9 -19 -10 -9 -15 -7 -3 vhcurveto
          -163 -370 154 -350 rlineto
          -17 9 10 -24 12 hhcurveto
          10 12 11 14 hvcurveto
          endchar
        </CharString>
        <CharString name="angleright">
          -64 -21 783 -20 hstem
          253 306 rmoveto
          -163 370 rlineto
          7 -3 -9 15 -10 hhcurveto
          -19 -3 -9 -15 hvcurveto
          0 158 -360 -7 vvcurveto
          -158 -367 rlineto
          -14 12 -11 10 12 10 24 17 9 vhcurveto
          endchar
        </CharString>
        <CharString name="aogonek">
          -210 37 167 34 callsubr
          50 callsubr
          103 40 -12 44 hintmask 00110101
          -103 callgsubr
          hintmask 11001010
          38 callsubr
          hintmask 10000001
          43 callgsubr
          hintmask 00100010
          83 callgsubr
          hintmask 01001001
          -66 callsubr
          endchar
        </CharString>
        <CharString name="aogonekacute">
          -210 37 167 34 callsubr
          90 161 callsubr
          -26 56 103 40 -12 44 hintmask 0011000101000000
          -103 callgsubr
          hintmask 1100001010000000
          38 callsubr
          hintmask 1000000001000000
          43 callgsubr
          hintmask 0010000010000000
          83 callgsubr
          hintmask 0100001001000000
          -66 callsubr
          hintmask 0000110001000000
          18 374 -107 callgsubr
        </CharString>
        <CharString name="aring">
          17 callgsubr
          57 22 80 22 50 callsubr
          21 27 56 27 0 44 hintmask 0110001001000000
          -103 callgsubr
          hintmask 1000010000000000
          -69 callgsubr
          hintmask 0100000000000000
          -78 callsubr
          hintmask 1000010001000000
          -66 callsubr
          hintmask 0001100110000000
          -27 329 -50 callgsubr
        </CharString>
        <CharString name="aringacute">
          17 callgsubr
          57 22 80 22 137 -20 50 callsubr
          21 27 56 27 0 44 hintmask 0110000100100000
          -103 callgsubr
          hintmask 1000001000000000
          -69 callgsubr
          hintmask 0100000000000000
          -78 callsubr
          hintmask 1000001000100000
          -66 callsubr
          hintmask 0001110011000000
          -27 329 -63 callsubr
          18 175 -107 callgsubr
        </CharString>
        <CharString name="asciicircum">
          525 -21 hstem
          305 526 rmoveto
          5 -5 9 -7 5 vhcurveto
          -104 73 rlineto
          -10 7 -18 -7 0 vvcurveto
          -104 -73 rlineto
          -7 -5 -5 -9 -5 vvcurveto
          -8 5 -14 11 5 4 1 6 9 vhcurveto
          96 60 96 -60 rlineto
          -6 9 4 -1 5 hhcurveto
          11 5 14 8 hvcurveto
          endchar
        </CharString>
        <CharString name="asciitilde">
          255 -31 callsubr
          hintmask 10010000
          294 336 -79 callgsubr
        </CharString>
        <CharString name="asciitilde.low">
          0 -31 callsubr
          hintmask 10010000
          294 81 -79 callgsubr
        </CharString>
        <CharString name="asterisk">
          -25 callsubr
        </CharString>
        <CharString name="asterisk.math">
          -25 callsubr
        </CharString>
        <CharString name="at">
          -6 40 76 41 309 41 76 40 hstem
          25 38 62 39 122 39 vstem
          325 72 rmoveto
          17 -19 0 -6 -10 -3 0 -10 -7 vhcurveto
          -34 -24 -26 -11 -25 hhcurveto
          -77 -65 118 153 159 68 113 73 21 29 -11 -94 23 hvcurveto
          16 -16 -17 13 -19 hhcurveto
          -53 -47 -84 -111 -117 50 -79 50 33 67 42 169 68 -3 228 -118 -91 -88 -129 -182 -181 86 -131 94 63 57 54 24 hvcurveto
          -39 234 rmoveto
          -92 -30 -63 -31 -34 -27 69 85 92 30 63 31 34 27 -69 -85 vhcurveto
          endchar
        </CharString>
        <CharString name="atilde">
          17 callgsubr
          78 129 callsubr
          hintmask 0110000011000000
          -103 callgsubr
          hintmask 1000000100000000
          -69 callgsubr
          hintmask 0100000000000000
          -78 callsubr
          hintmask 1000000101000000
          -66 callsubr
          hintmask 0001001001000000
          64 369 -46 callgsubr
        </CharString>
        <CharString name="b">
          -6 32 callsubr
          203 66 callgsubr
          -538 hlineto
          -16 4 -17 19 19 3 17 35 vhcurveto
          13 callsubr
          85 callsubr
        </CharString>
        <CharString name="backslash">
          87 callgsubr
          315 -61 rmoveto
          4 -2 1 -1 3 vhcurveto
          -231 720 rlineto
          18 -6 -4 12 -14 hhcurveto
          -9 -13 -7 -18 -4 2 -1 1 -3 hvcurveto
          231 -722 rlineto
          -10 3 6 -18 15 hhcurveto
          8 14 7 18 hvcurveto
          endchar
        </CharString>
        <CharString name="baht">
          -69 -21 90 92 callsubr
          90 -20 hstemhm
          59 44 46 40 -40 44 -1 40 35 44 -30 45 hintmask 0000000011000000
          326 163 rmoveto
          69 -27 62 -67 25 vhcurveto
          48 27 31 45 70 vvcurveto
          hintmask 0001000100000000
          72 -44 78 -74 vhcurveto
          hintmask 1111111000100000
          -4 70 hlineto
          101 callgsubr
          -70 -108 vlineto
          -106 callgsubr
          18 -531 -18 -107 callsubr
          108 -70 hlineto
          100 callsubr
          70 18 vlineto
          75 44 84 79 hvcurveto
          -59 297 rmoveto
          -48 -22 -66 -56 -7 vhcurveto
          232 2 vlineto
          hintmask 0011010101000000
          62 14 -72 -39 hvcurveto
          -118 -121 rmoveto
          -46 232 46 hlineto
          132 -406 rmoveto
          hintmask 0110011010100000
          -54 -23 -71 -66 vhcurveto
          -3 258 7 hlineto
          75 10 -96 -37 hvcurveto
          -132 -125 rmoveto
          -46 258 46 hlineto
          endchar
        </CharString>
        <CharString name="bar">
          -65 -21 783 155 callsubr
          197 -49 rmoveto
          709 vlineto
          153 callgsubr
          161 callgsubr
          3 -26 19 19 3 25 12 vhcurveto
          endchar
        </CharString>
        <CharString name="bigcircle">
          -4 23 474 23 hstem
          -5 25 310 25 vstem
          -51 callgsubr
          endchar
        </CharString>
        <CharString name="blanksymbol">
          -6 32 callsubr
          88 vlineto
          78 103 rlineto
          3 3 4 6 3 vvcurveto
          13 -11 8 -9 -5 -5 -3 -5 -3 vhcurveto
          -52 -67 rlineto
          54 66 callgsubr
          -106 hlineto
          -54 -72 -3 -6 rlineto
          -13 12 -8 8 5 5 3 5 4 vhcurveto
          23 30 rlineto
          -371 vlineto
          -16 4 -17 19 19 3 17 35 vhcurveto
          13 callsubr
          85 callsubr
        </CharString>
        <CharString name="braceleft">
          -86 41 330 40 291 40 0 41 hstemhm
          153 44 hintmask 10101000
          315 -66 rmoveto
          13 -8 7 -9 1 vhcurveto
          -101 3 0 44 35 vvcurveto
          166 vlineto
          25 -6 42 -50 35 vhcurveto
          54 40 2 43 31 vvcurveto
          0 0 186 4 11 vhcurveto
          38 12 65 2 20 hhcurveto
          6 11 4 17 hvcurveto
          hintmask 11011000
          20 -17 0 -11 -32 -94 -6 -99 -8 vhcurveto
          -157 vlineto
          -54 0 -14 -16 -15 vhcurveto
          -20 -20 -24 -5 -41 -2 rrcurveto
          -10 -1 -7 -5 -13 vvcurveto
          -17 11 -4 9 vhcurveto
          51 -1 45 -20 2 -48 rrcurveto
          -174 vlineto
          -39 4 -89 130 11 17 0 20 vhcurveto
          endchar
        </CharString>
        <CharString name="braceright">
          -86 41 0 40 269 41 -19 40 330 41 hstemhm
          153 44 hintmask 01011100
          315 305 rmoveto
          18 -12 3 -9 -57 -38 25 44 -2 vhcurveto
          174 vlineto
          39 -4 89 -131 -10 -17 0 -20 -13 7 -7 9 -1 vhcurveto
          102 0 -46 -36 hvcurveto
          -166 vlineto
          -17 3 -47 53 -38 vhcurveto
          -53 -40 -3 -43 -31 vvcurveto
          -118 vlineto
          -27 0 -41 -3 -11 vhcurveto
          -38 -12 -66 -2 -21 hhcurveto
          -5 -11 -3 -18 hvcurveto
          hintmask 10100100
          -20 17 0 10 37 91 8 97 7 vhcurveto
          157 vlineto
          55 0 16 22 17 vhcurveto
          hintmask 00010000
          15 19 22 7 38 hhcurveto
          hintmask 00100000
          10 7 6 13 hvcurveto
          endchar
        </CharString>
        <CharString name="bracketleft">
          -86 41 701 41 hstem
          149 45 vstem
          327 -66 rmoveto
          21 -20 0 -8 vhcurveto
          -105 701 105 hlineto
          8 20 0 21 -35 callgsubr
          hvcurveto
          -122 hlineto
          -20 -8 -5 -28 hvcurveto
          -717 vlineto
          -27 8 -6 20 vhcurveto
          122 hlineto
          -23 callgsubr
        </CharString>
        <CharString name="bracketright">
          -86 41 701 41 hstem
          156 44 vstem
          200 -53 rmoveto
          717 34 callgsubr
          -122 hlineto
          -9 -19 0 -20 -21 -28 callgsubr
          105 -701 -105 hlineto
          -9 -19 0 -21 -15 callgsubr
          122 hlineto
          19 -6 callgsubr
          endchar
        </CharString>
        <CharString name="breve">
          516 42 54 -20 hstem
          295 590 -71 callgsubr
          endchar
        </CharString>
        <CharString name="breve.cap">
          494 42 54 -20 hstem
          295 568 -100 callgsubr
          endchar
        </CharString>
        <CharString name="breve.ts1">
          512 42 54 -20 hstem
          309 586 rmoveto
          18 -13 4 -7 -17 -2 -21 -6 -1 vhcurveto
          -21 -2 -38 -6 -54 hhcurveto
          -77 -15 12 18 -2 hvcurveto
          15 -2 -8 9 -11 hhcurveto
          -6 -13 -3 -19 -74 91 0 43 43 91 0 74 hvcurveto
          endchar
        </CharString>
        <CharString name="brokenbar">
          -65 -21 783 155 callsubr
          197 376 rmoveto
          284 vlineto
          153 callgsubr
          -25 -12 vhcurveto
          -284 vlineto
          -13 12 -7 11 9 12 7 13 vhcurveto
          -425 vmoveto
          284 vlineto
          13 -12 7 -9 -11 -12 -7 -13 vhcurveto
          -284 vlineto
          -11 3 -26 19 19 3 25 12 vhcurveto
          endchar
        </CharString>
        <CharString name="bullet">
          119 246 hstem
          85 180 88 callsubr
          endchar
        </CharString>
        <CharString name="c">
          53 callsubr
          hstem
          47 44 162 53 vstem
          -59 callgsubr
          endchar
        </CharString>
        <CharString name="cacute">
          53 callsubr
          90 -10 callgsubr
          47 44 162 53 hintmask 11001100
          -59 callgsubr
          hintmask 00110000
          -56 496 -107 callgsubr
        </CharString>
        <CharString name="caron">
          620 -20 hstem
          275 600 -92 callsubr
        </CharString>
        <CharString name="caron.cap">
          565 -20 hstem
          272 548 rmoveto
          -98 callgsubr
        </CharString>
        <CharString name="caron.ts1">
          615 -20 hstem
          301 588 rmoveto
          14 -9 13 -11 -5 -13 -6 -5 -7 vhcurveto
          -83 -59 -83 59 rlineto
          5 -7 -13 6 -5 hhcurveto
          -11 -9 -13 -14 -5 5 -6 7 -5 hvcurveto
          101 -69 9 -5 12 -2 9 7 rlinecurve
          101 69 rlineto
          7 5 5 6 5 vvcurveto
          endchar
        </CharString>
        <CharString name="ccaron">
          53 callsubr
          185 -20 hstemhm
          47 44 162 53 hintmask 11011000
          -59 callgsubr
          hintmask 00100000
          -29 497 -92 callsubr
        </CharString>
        <CharString name="ccedilla">
          -214 41 167 40 360 41 hstemhm
          47 44 68 45 -20 45 -24 45 -44 44 2 44 -43 53 hintmask 0111100101000000
          314 103 rmoveto
          17 -18 0 -5 -12 -5 -5 -10 -3 vhcurveto
          -65 -18 -34 -6 -17 hhcurveto
          -62 -49 79 100 55 17 126 96 19 15 -2 -1 6 hvcurveto
          5 -2 1 -4 -7 vvcurveto
          -38 3 21 0 4 hhcurveto
          13 15 10 23 hvcurveto
          hintmask 0011001000000000
          62 -72 0 -29 -116 -42 -138 -84 vhcurveto
          hintmask 0000010000000000
          -116 61 -93 76 -9 vhcurveto
          -34 vlineto
          hintmask 1000100110000000
          9 callsubr
          -14 hlineto
          -9 106 callsubr
          hvcurveto
          hintmask 0000010000000000
          39 -22 36 -45 13 vhcurveto
          32 vlineto
          63 19 22 71 14 vvcurveto
          endchar
        </CharString>
        <CharString name="ccircumflex">
          160 callgsubr
          hstemhm
          47 44 162 53 hintmask 11011000
          -59 callgsubr
          hintmask 00100000
          -29 424 -96 callsubr
          endchar
        </CharString>
        <CharString name="cdotaccent">
          53 callsubr
          92 74 hstemhm
          47 44 63 62 37 53 hintmask 11010100
          -59 callgsubr
          hintmask 00101000
          -98 461 -65 callsubr
        </CharString>
        <CharString name="cedilla">
          13 callgsubr
        </CharString>
        <CharString name="cedilla.dup">
          13 callgsubr
        </CharString>
        <CharString name="cent">
          -69 -21 605 -20 hstem
          47 44 82 40 40 53 vstem
          314 103 rmoveto
          17 -18 0 -5 -12 -5 -5 -10 -3 vhcurveto
          -15 -54 -24 -13 -19 -3 rrcurveto
          359 vlineto
          15 -1 11 -1 5 -1 rrcurveto
          5 -2 1 -4 -7 vvcurveto
          -38 3 21 0 4 hhcurveto
          13 15 10 23 62 -61 0 -32 hvcurveto
          60 vlineto
          101 callgsubr
          -64 vlineto
          -92 -23 -34 -119 -76 vvcurveto
          -111 55 -89 71 -16 vhcurveto
          -67 vlineto
          100 callsubr
          65 vlineto
          76 12 25 81 15 vvcurveto
          -141 -63 rmoveto
          -48 21 -34 69 83 vvcurveto
          49 13 102 69 25 vhcurveto
          endchar
        </CharString>
        <CharString name="cent.oldstyle">
          -69 -21 84 40 360 41 80 -20 hstemhm
          47 44 67 44 -13 44 20 53 hintmask 01000101
          314 103 rmoveto
          17 -18 0 -5 -12 -5 -5 -10 -3 vhcurveto
          -65 -18 -34 -6 -17 hhcurveto
          -8 -9 1 4 -10 hvcurveto
          53 354 16 -2 rlineto
          5 -2 1 -4 -7 vvcurveto
          -38 3 21 0 4 hhcurveto
          13 15 10 23 hvcurveto
          hintmask 10111010
          48 -39 9 -34 4 vhcurveto
          10 63 rlineto
          12 2 -13 6 -8 hhcurveto
          -10 -8 -10 -13 -2 hvcurveto
          -9 -57 rlineto
          -109 -8 -39 -132 -82 vvcurveto
          -86 35 -74 51 -37 vhcurveto
          -13 -89 rlineto
          -11 -2 13 -6 8 hhcurveto
          hintmask 01001100
          10 7 10 13 2 hvcurveto
          10 65 rlineto
          -3 9 10 -1 9 hhcurveto
          90 28 93 16 hvcurveto
          -125 290 rmoveto
          -49 -329 rlineto
          -31 32 -18 55 62 vvcurveto
          hintmask 00000010
          51 15 113 83 16 vhcurveto
          endchar
        </CharString>
        <CharString name="centigrade">
          -11 40 462 28 65 40 -34 27 hstemhm
          2 25 50 25 -1 45 -44 44 142 45 -43 44 hintmask 0010000010000000
          334 440 rmoveto
          6 -1 8 6 vvcurveto
          139 vlineto
          17 -8 8 -11 vhcurveto
          hintmask 1010001001000000
          -15 -5 -20 -18 -4 hvcurveto
          20 -17 -20 18 -22 hhcurveto
          -106 -24 -225 -94 -103 21 -156 70 -46 hvcurveto
          -7 12 11 -4 12 hhcurveto
          hintmask 1010000110000000
          64 42 95 85 20 -13 0 -10 -9 -13 -1 -20 0 2 -139 -59 -62 -23 170 102 110 26 173 58 hvcurveto
          hintmask 0101100101000000
          36 23 -61 -92 1 hvcurveto
          -10 10 -6 12 14 8 10 15 vhcurveto
          -232 114 64 callsubr
          vhcurveto
          hintmask 0000010000000000
          16 10 -17 -20 hvcurveto
          endchar
        </CharString>
        <CharString name="circumflex">
          528 -21 hstem
          275 527 -96 callsubr
          endchar
        </CharString>
        <CharString name="circumflex.cap">
          506 -21 hstem
          272 502 -105 callsubr
          endchar
        </CharString>
        <CharString name="circumflex.dup">
          528 -21 hstem
          275 527 -96 callsubr
          endchar
        </CharString>
        <CharString name="colon">
          0 97 231 115 callsubr
          376 65 callsubr
          -328 vmoveto
          8 callsubr
          endchar
        </CharString>
        <CharString name="colonmonetary">
          -69 -21 673 40 78 -20 hstem
          23 45 105 40 69 45 vstem
          327 165 rmoveto
          22 -16 0 -7 -9 -12 -4 -17 -1 vhcurveto
          -5 -95 -38 -30 -26 -9 rrcurveto
          547 vlineto
          32 -14 29 -44 8 -78 rrcurveto
          -22 2 6 -6 14 hhcurveto
          19 4 12 17 hvcurveto
          150 vlineto
          13 -4 16 -16 -11 -5 -11 -7 -2 vhcurveto
          -10 -34 -21 27 -23 15 -22 6 rlinecurve
          62 vlineto
          101 callgsubr
          -59 vlineto
          -82 -15 -68 -131 -170 vvcurveto
          -173 70 -129 80 -15 vhcurveto
          -59 vlineto
          100 callsubr
          61 vlineto
          66 17 48 78 79 vvcurveto
          -154 -133 rmoveto
          -59 20 -46 110 144 vvcurveto
          144 47 109 58 21 vhcurveto
          endchar
        </CharString>
        <CharString name="comma">
          -122 -21 143 97 hstem
          136 93 vstem
          229 9 rmoveto
          50 -25 38 -28 -23 -17 -23 -25 -30 20 -19 19 4 5 1 3 7 vhcurveto
          -6 -52 -14 -40 -46 -23 rrcurveto
          -3 -3 -2 -3 -5 vvcurveto
          -11 12 -10 9 18 70 46 106 vhcurveto
          endchar
        </CharString>
        <CharString name="copyleft">
          150 callsubr
          86 25 118 25 56 25 vstem
          -51 callgsubr
          -56 1 rmoveto
          99 -43 76 -48 -17 -17 -9 -20 -16 vhcurveto
          -6 19 rlineto
          4 -1 -3 6 -6 hhcurveto
          -8 -3 -9 -7 hvcurveto
          -83 vlineto
          -9 3 -7 10 8 3 4 12 1 vhcurveto
          52 6 23 25 21 hhcurveto
          36 32 -64 -89 -88 -32 -65 -37 -7 -39 5 71 -3 hvcurveto
          10 -7 2 -5 -4 -9 0 -12 -49 33 -49 44 47 44 74 101 vhcurveto
          endchar
        </CharString>
        <CharString name="copyright">
          150 callsubr
          56 25 118 25 86 25 vstem
          -51 callgsubr
          -86 -76 rmoveto
          12 -9 0 -4 -5 -7 -2 -10 vhcurveto
          -71 -3 -39 -5 -7 hhcurveto
          -37 -32 65 88 89 32 64 36 21 23 -25 -52 6 hvcurveto
          -12 1 3 -4 8 hhcurveto
          10 3 7 9 hvcurveto
          83 vlineto
          7 -3 9 -8 -6 -3 -6 -4 -1 vhcurveto
          -6 -19 rlineto
          20 -16 -17 9 -17 hhcurveto
          -48 -43 -76 -99 -101 44 -74 47 44 33 49 49 hvcurveto
          endchar
        </CharString>
        <CharString name="currency">
          170 47 178 47 hstem
          76 44 109 44 vstem
          284 155 rmoveto
          10 14 -11 16 -5 7 -24 36 rcurveline
          14 30 5 24 24 vvcurveto
          24 -5 24 -13 31 vhcurveto
          23 34 4 6 12 17 -10 14 rlinecurve
          -16 24 -15 -23 -7 -10 -19 -27 rcurveline
          13 -15 -18 9 -19 hhcurveto
          -19 -18 -9 -13 -15 hvcurveto
          -19 28 -6 9 -17 24 -16 -25 rlinecurve
          -8 -14 10 -15 5 -7 24 -35 rcurveline
          -13 -31 -7 -24 -24 vvcurveto
          -24 7 -24 13 -31 vhcurveto
          -24 -35 -5 -6 -11 -17 9 -14 rlinecurve
          16 -24 16 23 7 10 19 28 rcurveline
          -14 15 18 -8 19 hhcurveto
          19 18 8 14 15 hvcurveto
          19 -28 7 -9 16 -22 15 22 rlinecurve
          -55 151 rmoveto
          -48 -21 -41 -33 -32 -23 41 48 48 23 41 32 33 21 -41 -48 vhcurveto
          endchar
        </CharString>
        <CharString name="cwm">
          -107 endchar
        </CharString>
        <CharString name="cwmascender">
          -107 endchar
        </CharString>
        <CharString name="cwmcapital">
          -107 endchar
        </CharString>
        <CharString name="d">
          -6 100 callgsubr
          178 44 hintmask 01111100
          -19 callsubr
          hintmask 10000100
          60 callsubr
          hintmask 01000000
          36 callgsubr
          hintmask 10101100
          28 callgsubr
          endchar
        </CharString>
        <CharString name="dagger">
          -202 -21 633 49 249 -20 hstem
          148 53 vstem
          308 434 rmoveto
          11 -8 14 -21 -17 -24 -8 -6 -17 vhcurveto
          -2 -1 -20 -5 -19 -3 3 39 3 46 7 49 rrcurveto
          3 35 5 53 18 vvcurveto
          6 -4 26 -22 -23 -4 -25 -7 -15 1 -18 2 -18 vhcurveto
          13 -111 2 -32 1 -46 -9 2 -16 2 -16 5 rrcurveto
          6 -15 -24 8 -17 hhcurveto
          -24 -5 -20 -4 -11 8 -14 21 17 24 8 6 17 hvcurveto
          2 1 19 2 18 3 -3 -44 -1 -16 -4 -27 rrcurveto
          -11 -69 0 -8 -51 vvcurveto
          -153 8 -170 8 -97 vhcurveto
          -13 1 1 -5 8 hhcurveto
          9 1 5 13 1 hvcurveto
          5 50 11 370 0 vvcurveto
          52 0 7 -11 68 vhcurveto
          -4 24 -2 17 -4 47 11 -2 16 1 16 -5 rrcurveto
          -6 15 24 -8 17 hhcurveto
          24 5 20 4 hvcurveto
          endchar
        </CharString>
        <CharString name="daggerdbl">
          -191 -21 201 48 421 50 200 -20 hstem
          128 53 -33 53 -33 53 cntrmask 00001110
          308 483 rmoveto
          11 -8 14 -21 -17 -24 -8 -7 -17 vhcurveto
          -2 -1 -20 -5 -18 -2 2 44 6 39 2 15 rrcurveto
          4 31 6 39 25 vvcurveto
          6 -4 24 -23 -7 -19 0 -30 -19 3 -27 5 -32 vhcurveto
          7 -44 3 -29 1 -42 -9 1 -16 2 -16 5 rrcurveto
          7 -15 -24 8 -17 hhcurveto
          -24 -5 -20 -4 -12 8 -14 21 17 24 9 6 17 hvcurveto
          2 1 20 4 17 2 -1 -44 -6 -37 -2 -16 rrcurveto
          -4 -31 -6 -39 -25 vvcurveto
          -30 19 0 7 21 6 18 12 19 -3 27 -5 32 vhcurveto
          -7 43 -3 27 -2 44 10 -1 16 -1 16 -5 rrcurveto
          -6 15 24 -9 17 hhcurveto
          24 5 20 5 hvcurveto
          -470 vmoveto
          14 -12 10 -14 -16 -14 -3 -8 -25 vhcurveto
          -21 -8 -6 -1 -20 -2 4 47 2 24 7 43 rrcurveto
          7 52 1 21 5 vvcurveto
          30 -19 0 -7 -21 -6 -18 -12 -22 6 -46 5 -32 vhcurveto
          2 -12 4 -31 3 -49 -20 2 -3 0 -32 11 rrcurveto
          9 -26 -14 0 -6 hhcurveto
          -16 -10 -13 -11 -13 10 -11 16 20 20 6 4 9 hvcurveto
          31 10 5 -3 15 3 -3 -47 -1 -21 -7 -45 rrcurveto
          -8 -51 0 -22 -4 vvcurveto
          -30 19 -1 7 21 6 19 12 22 -6 46 -5 32 vhcurveto
          -2 12 -4 28 -4 50 21 -3 3 3 32 -11 rrcurveto
          -9 27 14 0 5 hhcurveto
          15 11 11 13 hvcurveto
          endchar
        </CharString>
        <CharString name="dblbracketleft">
          -85 48 687 48 hstem
          95 45 68 44 vstem
          334 -61 rmoveto
          15 -8 9 -15 vhcurveto
          -59 687 58 hlineto
          12 12 5 21 20 -12 2 -12 hvcurveto
          -189 hlineto
          -11 -15 0 -26 hvcurveto
          -730 vlineto
          -22 12 -5 14 vhcurveto
          192 hlineto
          14 7 10 14 hvcurveto
          -126 24 rmoveto
          -68 687 68 hlineto
          endchar
        </CharString>
        <CharString name="dblbracketright">
          -85 48 687 48 hstem
          97 44 68 45 vstem
          254 -59 rmoveto
          729 vlineto
          15 -6 13 -16 vhcurveto
          -195 hlineto
          -14 -8 -10 -14 -14 8 -10 15 hvcurveto
          59 -687 -59 hlineto
          -15 -8 -10 -14 -14 8 -10 14 hvcurveto
          191 hlineto
          14 12 4 22 hvcurveto
          -45 22 rmoveto
          -68 687 68 hlineto
          endchar
        </CharString>
        <CharString name="dblgrave.ts1">
          515 97 callsubr
          hstem
          272 517 rmoveto
          -102 callsubr
          -121 hmoveto
          -102 callsubr
          endchar
        </CharString>
        <CharString name="dblverticalbar">
          87 callgsubr
          85 45 90 45 vstem
          130 -49 rmoveto
          709 vlineto
          11 -3 26 -19 -19 -4 161 callgsubr
          4 -26 18 20 3 25 12 vhcurveto
          135 hmoveto
          709 vlineto
          11 -4 26 -18 -19 -4 161 callgsubr
          4 -26 18 19 4 25 12 vhcurveto
          endchar
        </CharString>
        <CharString name="dcaron">
          -6 40 -34 124 callgsubr
          26 156 callsubr
          21 44 178 44 39 69 hintmask 0110011100000000
          -19 callsubr
          hintmask 1000000100000000
          60 callsubr
          hintmask 0100000000000000
          36 callgsubr
          hintmask 1010011110000000
          28 callgsubr
          152 281 rmoveto
          37 -20 26 -20 -17 -12 -16 -17 vhcurveto
          hintmask 0001100010000000
          -22 14 -13 15 vhcurveto
          0 6 1 6 4 vhcurveto
          -5 -46 -11 -29 -37 -19 -1 -4 rcurveline
          -8 10 -6 6 13 53 33 79 vhcurveto
          endchar
        </CharString>
        <CharString name="dcroat">
          -6 40 -34 124 callgsubr
          47 40 53 40 hstemhm
          21 44 178 44 hintmask 01111110
          -33 callsubr
          438 35 hlineto
          67 callgsubr
          -35 60 hlineto
          27 -7 6 44 callgsubr
          -53 -104 hlineto
          -9 156 callgsubr
          9 hvcurveto
          104 -99 hlineto
          17 -12 -29 35 -43 hhcurveto
          -72 -66 -93 -126 hvcurveto
          hintmask 10000010
          60 callsubr
          hintmask 01000000
          36 callgsubr
          hintmask 10100110
          28 callgsubr
          endchar
        </CharString>
        <CharString name="ddotbelow">
          -206 73 127 100 callgsubr
          79 62 37 44 hintmask 00111101
          -19 callsubr
          hintmask 01000001
          60 callsubr
          hintmask 00100000
          36 callgsubr
          hintmask 01010101
          28 callgsubr
          hintmask 10000010
          -37 -437 rmoveto
          106 callgsubr
        </CharString>
        <CharString name="degree">
          491 28 71 27 hstem
          122 25 50 25 vstem
          222 554 64 callsubr
          16 10 -17 -20 vhcurveto
          endchar
        </CharString>
        <CharString name="diameter">
          100 47 318 47 hstem
          29 43 205 44 vstem
          329 500 rmoveto
          15 -12 8 -10 -7 -5 -4 -5 -4 vhcurveto
          -30 -43 rlineto
          25 -24 -30 16 -32 hhcurveto
          -78 -68 -91 -115 -44 11 -41 23 -45 hvcurveto
          -36 -51 rlineto
          -2 -4 125 callgsubr
          -15 12 -8 10 6 6 4 5 4 vhcurveto
          29 44 rlineto
          -25 25 30 -16 32 hhcurveto
          78 68 91 115 44 -11 41 -22 43 hvcurveto
          35 52 rlineto
          2 4 4 6 4 vvcurveto
          -52 -194 rmoveto
          -86 -43 -73 -59 -20 -19 8 22 -23 vhcurveto
          148 218 rlineto
          11 -25 5 -32 -32 vvcurveto
          -39 129 rmoveto
          -149 -219 rlineto
          -12 26 -5 31 33 vvcurveto
          86 44 73 59 20 18 -8 -22 25 vhcurveto
          endchar
        </CharString>
        <CharString name="died">
          3 -21 325 42 198 -20 hstem
          152 45 vstem
          333 327 rmoveto
          17 -13 5 -11 vhcurveto
          -112 175 hlineto
          20 -12 3 -11 -16 -6 -12 -15 vhcurveto
          -171 -112 vlineto
          -13 -10 -6 -16 -21 15 1 9 hvcurveto
          111 -303 hlineto
          -18 11 -4 13 16 5 17 15 vhcurveto
          293 110 vlineto
          10 16 -1 21 hvcurveto
          endchar
        </CharString>
        <CharString name="dieresis">
          532 64 hstem
          95 56 49 56 vstem
          -34 callgsubr
          endchar
        </CharString>
        <CharString name="dieresis.cap">
          484 64 hstem
          86 56 67 56 vstem
          5 callgsubr
          endchar
        </CharString>
        <CharString name="dieresis.dup">
          532 64 hstem
          95 56 49 56 vstem
          -34 callgsubr
          endchar
        </CharString>
        <CharString name="dieresis.ts1">
          540 73 hstem
          74 62 78 61 vstem
          136 575 rmoveto
          20 -14 18 -16 vhcurveto
          -6 -1 rlineto
          -13 -13 -18 -17 -21 15 -16 15 14 18 13 22 hvcurveto
          139 hmoveto
          21 -15 17 -14 vhcurveto
          -6 -1 rlineto
          -12 -14 -16 -19 -24 15 -13 20 hvcurveto
          13 3 13 14 18 vvcurveto
          endchar
        </CharString>
        <CharString name="discount">
          9 125 -112 -21 565 124 8 -20 hstemhm
          75 72 55 72 hintmask 01010000
          314 673 rmoveto
          15 -10 10 -10 -13 -10 -21 -12 -4 vhcurveto
          -219 -604 rlineto
          -4 -12 -7 -11 -13 vvcurveto
          -15 8 -9 12 vhcurveto
          1 hlineto
          11 5 10 13 5 hvcurveto
          201 556 rlineto
          -133 47 rmoveto
          hintmask 10101100
          -35 -15 -26 -22 -24 -11 34 29 32 12 29 25 26 9 -34 -29 vhcurveto
          127 -556 rmoveto
          -35 -16 -27 -22 -23 -11 34 30 33 10 28 27 25 10 -34 -29 vhcurveto
          endchar
        </CharString>
        <CharString name="divide">
          62 97 124 47 124 97 hstem
          135 79 cntrmask 11100000
          71 callgsubr
          -115 196 rmoveto
          30 -21 19 -18 -20 -20 -20 -29 -27 21 -21 18 21 19 22 26 vhcurveto
          -392 vmoveto
          30 -21 19 -18 -20 -20 -20 -29 -27 21 -21 18 21 19 21 27 vhcurveto
          endchar
        </CharString>
        <CharString name="divorced">
          -46 -21 160 45 337 44 162 -20 hstem
          -147 43 167 44 45 45 46 43 167 44 vstem
          107 307 96 callsubr
          90 -347 rmoveto
          695 vlineto
          21 -11 5 -11 -14 -9 -8 -21 vhcurveto
          -693 vlineto
          -20 10 -6 11 19 5 12 15 vhcurveto
          -134 350 114 callgsubr
          434 -3 96 callsubr
          -44 3 114 callgsubr
          endchar
        </CharString>
        <CharString name="dlinebelow">
          -189 41 142 100 callgsubr
          178 44 hintmask 00111110
          -19 callsubr
          hintmask 01000010
          60 callsubr
          hintmask 00100000
          36 callgsubr
          hintmask 01010110
          28 callgsubr
          hintmask 10000000
          62 -436 -89 callgsubr
        </CharString>
        <CharString name="dollar">
          87 callgsubr
          35 41 79 40 79 41 cntrmask 00111000
          315 166 rmoveto
          57 -29 88 -91 26 vhcurveto
          238 vlineto
          37 -6 27 -26 12 -62 rrcurveto
          -9 -10 -3 -10 -3 vvcurveto
          -24 17 -9 10 3 26 0 37 34 -13 104 -107 16 vhcurveto
          48 vlineto
          13 -4 20 -16 -17 -3 -21 -12 vhcurveto
          -49 vlineto
          -73 -13 -47 -71 -73 vvcurveto
          -17 5 -109 115 -32 vhcurveto
          -264 vlineto
          -46 10 -20 36 -10 60 rrcurveto
          8 9 4 9 6 vvcurveto
          23 -17 9 -11 vhcurveto
          0 -28 0 -38 vvcurveto
          -67 32 -85 88 -13 vhcurveto
          -48 vlineto
          -12 3 -21 17 16 4 20 13 vhcurveto
          49 vlineto
          73 15 47 75 80 vvcurveto
          -160 183 rmoveto
          -49 13 -30 46 54 vvcurveto
          53 31 49 48 11 vhcurveto
          119 -412 rmoveto
          -55 -27 -58 -52 -13 vhcurveto
          250 vlineto
          46 -12 33 -52 -60 vvcurveto
          endchar
        </CharString>
        <CharString name="dollar.oldstyle">
          -64 -21 81 38 301 38 206 38 81 -20 hstemhm
          28 41 42 40 -18 41 24 40 42 41 hintmask 0001101011000000
          321 165 rmoveto
          68 -29 48 -54 37 vhcurveto
          241 vlineto
          16 -11 16 -23 3 -26 rrcurveto
          -16 -8 -12 -13 vvcurveto
          -17 14 -15 13 19 10 20 20 66 -39 62 -44 11 vhcurveto
          68 vlineto
          17 -9 8 -11 -13 -7 -14 -17 vhcurveto
          -50 -47 49 vlineto
          hintmask 0000100100000000
          4 2 28 -20 vhcurveto
          hintmask 1100011011000000
          -16 -6 -14 -16 hvcurveto
          -63 vlineto
          -40 -25 -43 -53 -65 vvcurveto
          -63 40 -65 43 -13 vhcurveto
          -265 vlineto
          -17 17 -18 32 28 13 8 5 15 vvcurveto
          19 -14 14 -14 -15 -13 -13 -26 -75 40 -57 43 -20 vhcurveto
          -64 vlineto
          -18 8 -11 12 13 7 13 18 vhcurveto
          50 47 -50 vlineto
          -17 7 -14 13 12 8 11 19 vhcurveto
          65 vlineto
          48 36 35 50 69 vvcurveto
          -123 170 rmoveto
          -47 20 rlineto
          221 vlineto
          hintmask 0011010110000000
          0 14 3 9 9 15 -3 0 vhcurveto
          -87 -203 rmoveto
          -22 19 -20 29 42 vvcurveto
          hintmask 0110001011000000
          38 17 38 25 17 vhcurveto
          169 -393 rmoveto
          -43 -16 -36 -26 -25 vhcurveto
          204 vlineto
          24 -20 18 -38 -42 vvcurveto
          -82 -123 rmoveto
          0 -13 -6 -9 -10 -15 3 0 vhcurveto
          267 vlineto
          47 -18 rlineto
          endchar
        </CharString>
        <CharString name="dong">
          -60 40 46 37 -31 37 -19 37 317 37 44 38 51 37 hstemhm
          19 43 168 43 hintmask 0010111110000000
          327 50 rmoveto
          19 -19 0 -8 vhcurveto
          -27 416 33 hlineto
          8 11 7 12 12 -11 7 -8 hvcurveto
          -33 58 hlineto
          25 -8 5 -19 vhcurveto
          -44 hlineto
          -7 -19 0 -19 -18 19 0 7 hvcurveto
          28 -51 -98 hlineto
          -9 -10 -7 -12 -12 10 -7 9 hvcurveto
          98 -95 hlineto
          17 -11 -27 34 -41 hhcurveto
          -68 -64 -89 -119 hvcurveto
          hintmask 0100000000000000
          -117 60 -90 66 vhcurveto
          hintmask 0001000010000000
          43 29 38 23 13 hvcurveto
          hintmask 0010000000000000
          -46 3 -9 23 vhcurveto
          44 hlineto
          hintmask 1001000100000000
          8 19 0 18 hvcurveto
          -90 vmoveto
          13 -11 7 -9 vhcurveto
          -268 hlineto
          -8 -12 -7 -13 -13 12 -7 8 hvcurveto
          268 hlineto
          9 11 7 13 hvcurveto
          -97 248 rmoveto
          hintmask 0100100110000000
          -58 -28 -87 -53 -50 -37 77 93 98 43 73 50 46 29 -65 -55 vhcurveto
          endchar
        </CharString>
        <CharString name="dotaccent">
          527 74 134 callsubr
          564 -65 callsubr
        </CharString>
        <CharString name="dotaccent.alt">
          491 74 134 callsubr
          528 -65 callsubr
        </CharString>
        <CharString name="dotaccent.cap">
          484 74 134 callsubr
          521 -65 callsubr
        </CharString>
        <CharString name="dotlessi">
          31 callsubr
          hstem
          161 45 vstem
          -91 callgsubr
          endchar
        </CharString>
        <CharString name="dotlessj">
          116 callgsubr
          hstem
          28 55 119 45 vstem
          -68 callsubr
          endchar
        </CharString>
        <CharString name="e">
          -2 callgsubr
          hstem
          -101 callsubr
          endchar
        </CharString>
        <CharString name="eacute">
          -2 callgsubr
          90 -10 callgsubr
          hintmask 11100000
          -101 callsubr
          hintmask 00011000
          -21 364 -107 callgsubr
        </CharString>
        <CharString name="ebreve">
          -2 callgsubr
          81 165 callgsubr
          hintmask 11100000
          -101 callsubr
          hintmask 00011000
          26 355 -71 callgsubr
          endchar
        </CharString>
        <CharString name="ecaron">
          -2 callgsubr
          185 -20 -31 callgsubr
          6 365 -92 callsubr
        </CharString>
        <CharString name="ecircumflex">
          -2 callgsubr
          93 -21 -31 callgsubr
          6 292 -96 callsubr
          endchar
        </CharString>
        <CharString name="ecircumflexacute">
          -2 callgsubr
          93 -21 219 -20 hstemhm
          hintmask 11100000
          -101 callsubr
          hintmask 00011000
          3 289 -88 callsubr
        </CharString>
        <CharString name="ecircumflexdotbelow">
          136 callgsubr
          164 37 159 41 93 -21 164 callsubr
          hintmask 01111000
          -101 callsubr
          6 292 -96 callsubr
          hintmask 10000100
          -69 -697 rmoveto
          106 callgsubr
        </CharString>
        <CharString name="ecircumflexgrave">
          -2 callgsubr
          93 -21 -31 callgsubr
          3 289 -87 callgsubr
        </CharString>
        <CharString name="ecircumflexhookabove">
          -2 callgsubr
          75 41 callgsubr
          hintmask 1110000000000000
          -101 callsubr
          hintmask 0001000000000000
          3 289 -26 callsubr
        </CharString>
        <CharString name="ecircumflextilde">
          -2 callgsubr
          93 107 callsubr
          hintmask 11100000
          -101 callsubr
          hintmask 00011001
          3 289 -105 callsubr
          23 184 -86 callsubr
          hintmask 00000010
          -41 callgsubr
          hintmask 00000100
          51 callsubr
          hintmask 00001001
          -95 callsubr
          hintmask 00000100
          -38 callgsubr
          hintmask 00000010
          -29 callsubr
        </CharString>
        <CharString name="edblgrave">
          -2 callgsubr
          89 103 callgsubr
          hintmask 11100000
          -101 callsubr
          hintmask 00011000
          -110 291 rmoveto
          -102 callsubr
          133 hmoveto
          -102 callsubr
          endchar
        </CharString>
        <CharString name="edieresis">
          -2 callgsubr
          97 64 hstemhm
          95 56 49 56 hintmask 11100000
          -101 callsubr
          hintmask 00011100
          -118 328 -51 callsubr
        </CharString>
        <CharString name="edotaccent">
          -2 callgsubr
          92 74 164 callsubr
          hintmask 11100000
          -101 callsubr
          hintmask 00011000
          -63 329 -65 callsubr
        </CharString>
        <CharString name="edotbelow">
          136 callgsubr
          164 37 159 41 164 callsubr
          hintmask 01110000
          -101 callsubr
          hintmask 10001000
          -63 -405 rmoveto
          106 callgsubr
        </CharString>
        <CharString name="egrave">
          -2 callgsubr
          90 -10 callgsubr
          hintmask 11100000
          -101 callsubr
          hintmask 00011000
          -22 296 -100 callsubr
        </CharString>
        <CharString name="ehookabove">
          -2 callgsubr
          40 122 callsubr
          21 34 hintmask 11100000
          -101 callsubr
          hintmask 00011111
          -27 366 -101 callgsubr
        </CharString>
        <CharString name="eight">
          -10 callsubr
        </CharString>
        <CharString name="eight.taboldstyle">
          -10 callsubr
        </CharString>
        <CharString name="ellipsis">
          0 97 hstem
          15 79 42 78 42 78 vstem
          94 48 rmoveto
          30 -21 19 -18 -20 -20 -20 -29 -27 20 -21 19 21 19 22 26 vhcurveto
          120 hmoveto
          8 callsubr
          120 hmoveto
          30 -20 19 -18 37 callgsubr
          endchar
        </CharString>
        <CharString name="emacron">
          -2 callgsubr
          108 41 -31 callgsubr
          36 328 -89 callgsubr
        </CharString>
        <CharString name="emdash">
          -49 callsubr
        </CharString>
        <CharString name="emdash.alt">
          56 callsubr
        </CharString>
        <CharString name="endash">
          -49 callsubr
        </CharString>
        <CharString name="eng">
          -242 47 195 -3 callsubr
          -34 40 hstemhm
          85 44 91 45 0 45 hintmask 00000010
          310 50 rmoveto
          243 vlineto
          hintmask 00011100
          96 -35 42 -55 -47 -31 -39 -20 -13 vhcurveto
          hintmask 01101000
          43 -3 10 -24 -55 callsubr
          30 -345 -30 -82 callsubr
          104 hlineto
          23 callsubr
          -30 197 hlineto
          hintmask 10010010
          105 47 49 40 44 5 -39 -64 vhcurveto
          -238 vlineto
          -111 0 -134 -49 -11 -11 -9 -14 -15 11 -9 11 41 24 40 57 13 vhcurveto
          13 55 3 72 68 vvcurveto
          endchar
        </CharString>
        <CharString name="eogonek">
          -210 37 371 37 159 41 hstem
          34 45 54 41 28 41 26 45 vstem
          -17 callsubr
          endchar
        </CharString>
        <CharString name="eogonekacute">
          -210 37 371 37 159 41 90 -10 callgsubr
          34 45 54 41 28 41 26 45 hintmask 1110011110000000
          -17 callsubr
          hintmask 0001100000000000
          -21 364 -107 callgsubr
        </CharString>
        <CharString name="equal">
          203 48 109 48 hstem
          329 383 rmoveto
          25 -24 0 -9 vhcurveto
          -242 hlineto
          -9 -24 0 -25 -23 22 -21 callsubr
          248 hlineto
          8 22 0 23 hvcurveto
          -155 vmoveto
          23 -23 0 -7 vhcurveto
          -248 hlineto
          -8 -22 0 -23 -25 24 0 9 hvcurveto
          242 hlineto
          9 24 0 25 hvcurveto
          endchar
        </CharString>
        <CharString name="ereversed">
          -2 callgsubr
          hstem
          314 215 rmoveto
          122 -68 98 -78 -85 -49 -92 -116 -29 15 0 13 vhcurveto
          207 hlineto
          -98 -9 -46 -66 -59 hhcurveto
          -13 -46 5 60 -18 hvcurveto
          16 -4 -4 7 -13 hhcurveto
          -18 -5 -14 -5 -26 36 -83 87 84 73 95 126 hvcurveto
          -45 20 rmoveto
          -190 hlineto
          70 3 14 89 72 hhcurveto
          44 46 -52 -107 11 hvcurveto
          endchar
        </CharString>
        <CharString name="estimated">
          -5 40 266 38 242 41 hstem
          16 45 220 45 vstem
          326 328 rmoveto
          7 vlineto
          73 -11 84 -34 58 vhcurveto
          46 -25 -38 26 -40 hhcurveto
          -111 -51 -192 -120 -141 57 -174 114 52 61 25 83 25 hvcurveto
          2 vlineto
          17 -13 0 -9 -3 -16 -25 -19 -13 vhcurveto
          -32 -20 -30 -11 -29 hhcurveto
          -80 -42 132 90 -7 hvcurveto
          -4 44 rlineto
          241 hlineto
          14 12 4 23 hvcurveto
          -45 11 rmoveto
          -220 hlineto
          111 7 38 131 72 hhcurveto
          77 26 -132 -110 hvcurveto
          endchar
        </CharString>
        <CharString name="eth">
          53 callsubr
          184 -20 hstem
          158 callsubr
          50 vlineto
          110 -47 102 -79 72 vhcurveto
          52 30 rlineto
          7 4 5 7 9 vvcurveto
          11 -9 8 -12 -4 -5 -1 -2 -3 vhcurveto
          -66 -38 -22 17 -25 14 -26 11 rlinecurve
          1 -3 -4 1 -3 hhcurveto
          -13 -10 -9 -12 -8 5 -8 8 -3 hvcurveto
          18 -8 18 -9 16 -11 -49 -28 rcurveline
          -7 -4 -5 -7 -9 vvcurveto
          -11 9 -8 11 5 4 1 2 4 vhcurveto
          64 37 37 -31 29 -38 20 -43 rlinecurve
          15 -18 -20 8 -21 hhcurveto
          -74 -65 -97 -125 -126 66 -93 73 38 34 25 41 26 hvcurveto
          26 42 15 55 56 89 callsubr
        </CharString>
        <CharString name="etilde">
          -2 callgsubr
          78 -31 callsubr
          hintmask 11100000
          -101 callsubr
          hintmask 00010010
          25 359 -74 callsubr
          hintmask 00000100
          -41 callgsubr
          hintmask 00001000
          117 callgsubr
          hintmask 00010010
          -61 callsubr
          hintmask 00001000
          -38 callgsubr
          hintmask 00000100
          35 callgsubr
        </CharString>
        <CharString name="eturned">
          6 callgsubr
        </CharString>
        <CharString name="exclam">
          0 73 550 -20 hstem
          149 51 vstem
          206 580 rmoveto
          43 -1 -25 0 -5 hhcurveto
          -6 -25 -1 -44 hvcurveto
          5 -370 rlineto
          -25 4 -3 22 21 3 10 18 1 vhcurveto
          6 -171 115 callgsubr
          endchar
        </CharString>
        <CharString name="exclamdown">
          -221 -21 551 73 hstem
          150 50 vstem
          206 345 -94 callsubr
          -542 vmoveto
          -6 339 rlineto
          53 -3 7 -22 -21 -3 -10 -18 -1 vhcurveto
          -6 -372 rlineto
          -43 25 -1 6 6 25 2 43 vhcurveto
          endchar
        </CharString>
        <CharString name="f">
          -4 callgsubr
        </CharString>
        <CharString name="five">
          -12 167 callgsubr
          -45 56 -30 44 173 45 hintmask 11100110
          319 186 25 callsubr
          hintmask 00010000
          -37 -37 26 62 -16 hvcurveto
          hintmask 10001010
          82 callgsubr
        </CharString>
        <CharString name="five.taboldstyle">
          -200 167 callgsubr
          -19 44 173 45 hintmask 11101100
          319 -2 25 callsubr
          hintmask 10010100
          -37 -37 26 62 -16 hvcurveto
          82 callgsubr
        </CharString>
        <CharString name="florin">
          -4 callgsubr
        </CharString>
        <CharString name="four">
          0 40 133 41 371 169 callgsubr
          194 -68 callgsubr
          -53 379 126 callgsubr
          -387 139 callgsubr
          -133 -42 -107 callsubr
          123 -77 callsubr
          -42 133 125 callsubr
          371 rlineto
          2 hlineto
          endchar
        </CharString>
        <CharString name="four.taboldstyle">
          -187 40 147 41 357 169 callgsubr
          21 -68 callgsubr
          -53 365 126 callgsubr
          -373 139 callgsubr
          -147 -42 -107 callsubr
          123 -77 callsubr
          -42 147 125 callsubr
          357 rlineto
          2 hlineto
          endchar
        </CharString>
        <CharString name="fraction">
          9 -21 635 -20 hstem
          298 594 41 callsubr
          54 callsubr
          endchar
        </CharString>
        <CharString name="fraction.alt">
          -107 9 -21 635 -20 hstem
          122 594 41 callsubr
          54 callsubr
          endchar
        </CharString>
</ttFont>
